/* XPM */
static char *bb86947c3b92470ca37f5468145b5adbWmSQaLNVtf1KaDk8[] = {
/* columns rows colors chars-per-pixel */
"56 56 237 2 ",
"   c None",
".  c #2B2D03",
"X  c #2C2D03",
"o  c #2C2E03",
"O  c #2C2E04",
"+  c #2D2E04",
"@  c #2C2F04",
"#  c #2D2F04",
"$  c #2E2F04",
"%  c #2D3005",
"&  c #2E3004",
"*  c #2F3104",
"=  c #2E3005",
"-  c #2E3105",
";  c #2F3105",
":  c #2F3106",
">  c #313205",
",  c #303306",
"<  c #333406",
"1  c #323407",
"2  c #343506",
"3  c #363607",
"4  c #333608",
"5  c #343709",
"6  c #353809",
"7  c #35390A",
"8  c #36390A",
"9  c #383908",
"0  c #393908",
"q  c #3A3A08",
"w  c #3B3B09",
"e  c #383B0B",
"r  c #383C0B",
"t  c #3C3C09",
"y  c #3F3F0A",
"u  c #383D0C",
"i  c #393D0C",
"p  c #3A3E0C",
"a  c #3A3E0D",
"s  c #403F0A",
"d  c #3C410E",
"f  c #3D420F",
"g  c #3E430F",
"h  c #3F4410",
"j  c #41400A",
"k  c #42410B",
"l  c #44420B",
"z  c #44430C",
"x  c #46440C",
"c  c #4A480E",
"v  c #4B490E",
"b  c #4F4C0F",
"n  c #4F4D0F",
"m  c #404511",
"M  c #414711",
"N  c #434812",
"B  c #444913",
"V  c #454B14",
"C  c #474D15",
"Z  c #4F4D10",
"A  c #494F17",
"S  c #504D10",
"D  c #514F10",
"F  c #524F11",
"G  c #4B5218",
"H  c #4D5419",
"J  c #545111",
"K  c #5A5613",
"L  c #5B5714",
"P  c #5C5814",
"I  c #5D5914",
"U  c #50581B",
"Y  c #525A1C",
"T  c #545C1E",
"R  c #565E1F",
"E  c #605B15",
"W  c #625D16",
"Q  c #656017",
"!  c #666118",
"~  c #676218",
"^  c #7C741F",
"/  c #576020",
"(  c #596120",
")  c #596221",
"_  c #5A6221",
"`  c #5C6523",
"'  c #5C6623",
"]  c #5D6623",
"[  c #5D6724",
"{  c #5E6724",
"}  c #5F6925",
"|  c #667129",
" . c #6A752B",
".. c #6A752C",
"X. c #6A762C",
"o. c #6F7B2F",
"O. c #707D30",
"+. c #717E30",
"@. c #727F31",
"#. c #837A21",
"$. c #857B22",
"%. c #877E23",
"&. c #897F24",
"*. c #8A7F24",
"=. c #788635",
"-. c #798635",
";. c #7A8736",
":. c #7B8937",
">. c #7C8937",
",. c #7E8C38",
"<. c #7E8D39",
"1. c #8B8024",
"2. c #8B8124",
"3. c #8C8224",
"4. c #8F8426",
"5. c #8F8526",
"6. c #968B28",
"7. c #988C29",
"8. c #998D29",
"9. c #9A8E29",
"0. c #9B8F2A",
"q. c #9E912B",
"w. c #81903A",
"e. c #81903B",
"r. c #83913B",
"t. c #83923B",
"y. c #84933C",
"u. c #85943D",
"i. c #88973F",
"p. c #88983F",
"a. c #89983F",
"s. c #89993F",
"d. c #A0932B",
"f. c #A0942C",
"g. c #A1942C",
"h. c #A3952C",
"j. c #A5982D",
"k. c #A89A2E",
"l. c #AA9C2F",
"z. c #AC9E30",
"x. c #AD9F30",
"c. c #B0A131",
"v. c #B1A231",
"b. c #B3A332",
"n. c #B5A533",
"m. c #B6A633",
"M. c #B8A834",
"N. c #BBAB35",
"B. c #BCAC35",
"V. c #BDAC35",
"C. c #BEAD36",
"Z. c #C1B037",
"A. c #C2B137",
"S. c #C4B238",
"D. c #C7B539",
"F. c #C8B639",
"G. c #D1BE3C",
"H. c #D2BF3D",
"J. c #D3C03D",
"K. c #D8C43F",
"L. c #D9C53F",
"P. c #899940",
"I. c #8A9A40",
"U. c #8A9B40",
"Y. c #8B9C41",
"T. c #8C9C41",
"R. c #8C9C42",
"E. c #8D9D42",
"W. c #8D9E42",
"Q. c #8D9E43",
"!. c #8E9E43",
"~. c #8E9F43",
"^. c #8F9F43",
"/. c #8FA043",
"(. c #8FA044",
"). c #90A144",
"_. c #91A145",
"`. c #91A245",
"'. c #91A345",
"]. c #92A245",
"[. c #93A547",
"{. c #94A546",
"}. c #95A748",
"|. c #96A748",
" X c #96A848",
".X c #98AA49",
"XX c #9BAD4B",
"oX c #9CAE4B",
"OX c #9DB04D",
"+X c #9FB24E",
"@X c #A1B44F",
"#X c #A2B550",
"$X c #A6BA52",
"%X c #AABF55",
"&X c #ABC055",
"*X c #AFC458",
"=X c #B0C659",
"-X c #B1C659",
";X c #B2C85A",
":X c #B3C95B",
">X c #B4CB5B",
",X c #B6CC5C",
"<X c #B6CD5D",
"1X c #B8CF5E",
"2X c #BCD360",
"3X c #BCD460",
"4X c #BDD561",
"5X c #BED662",
"6X c #BFD762",
"7X c #BFD763",
"8X c #DEC941",
"9X c #E4CF43",
"0X c #E8D244",
"qX c #E9D244",
"wX c #E9D344",
"eX c #E9D345",
"rX c #EBD445",
"tX c #ECD545",
"yX c #ECD646",
"uX c #EED746",
"iX c #EFD846",
"pX c #F1DA47",
"aX c #F2DA47",
"sX c #F2DB48",
"dX c #F3DB48",
"fX c #F5DE49",
"gX c #F7DF4A",
"hX c #F8E04A",
"jX c #F9E04A",
"kX c #FBE24B",
"lX c #FBE34B",
"zX c #FCE44B",
"xX c #FDE44B",
"cX c #FDE54B",
"vX c #FEE54C",
"bX c #FFE64C",
"nX c #C0D863",
/* pixels */
"                                                                                                                ",
"                                                                                                                ",
"                                                                                                                ",
"                                                                                                                ",
"                                                                                                                ",
"                                                                                                                ",
"                                                                                                                ",
"                                                                                                                ",
"                                                                                                                ",
"                                                                                                                ",
"                                                                                                                ",
"                                                                                                                ",
"                                                                                                                ",
"        . . . . . . . . . . . . . . . . . . . . . . . . . . . . . . . . . . . . . . . . . @ . . . . . o         ",
"    . . % 1 1 1 1 1 1 1 1 1 1 1 1 1 1 1 1 1 1 1 1 1 1 1 1 1 1 1 1 1 1 1 1 1 1 1 1 1 1 1 4 1 > 4 1 1 1 % . o     ",
"  . % { I.].].].].].].].].].].].].].].].].].].].].].].].].].].].].].].].].].].].].].].].].].].].].].].s./ % .   ",
". . o.5XnXnXnXnXnXnXnXnXnXnXnX7XnXnXnXnX7XnXnXnXnXnXnXnXnXnXnXnXnXnXnXnXnXnXnXnXnXnXnXnX7XnXnXnXnXnXnXnX5X+.. . ",
". 1 &XnXnXnXnX~.} } } } } } } } } } } } } } } } } } } } } } } } } { } } } } } { } } } } } { } } i.nXnXnXnX%X5 . ",
". u =XnXnXnXnXm . . . . . . . . . . . . . . . . . . . . . . . . . . @ @ @ . . . . @ @ . . . . O i 5XnXnXnX=Xi . ",
"o u =XnXnXnX{.% f /.'.'.'.'.].].'.'.'.].].{ O . o K 3.g.h.5.E % . @ ( I.I.~.R.~.~.^.^.^.].].^.m @ ^.nXnXnX=Xi . ",
"o u =XnXXXR u % =.5X7XnXnXnXnXnX7XnXnXnX.X6 . J B.yXbXj.h.lXiXB.I . 6 .XnXnXnXnX5XnXnXnXnXnXnX=.O u T {.nX=Xi . ",
". u =XnX .. f I.2X5XnXnXnXnXnXnXnXnXnX~.6 2 2.hXbXbXaXb c 0XbXbXzX7.w 5 ~.nXnXnXnXnXnXnXnXnXnX7X^.m @ { nX=Xi . ",
"o u =XnX .. s.nXnXnXnXnXnXnXnXnXnXnX<XV O *.hXbXbXaXb.s 9 #.m.iXbXzX0.o m >XnXnXnXnXnXnXnXnXnXnXnX(.. ` nX=Xi . ",
"o u =XnX .. ~.nXnXnXnXnXnXnXnXnXnXnXw.o D hXbXbXG.J o . o . . b bXbXzXE o <.nXnXnXnXnXnXnXnXnXnXnX].o ` nX=Xi . ",
"o i =XnX .. R.nXnXnXnXnXnXnXnXnXnXnXV . N.bXbXhXw 5 c.v b 9XN.A.bXbXbXF.% B nXnXnXnXnXnXnXnXnXnXnX}.. ` nX=Xu o ",
"X i =XnX .. ~.nXnXnXnXnXnXnXnXnXnX=XO J 0XbXbXK.o Q aXb b sXbXbXbXbXbXiXQ . =XnXnXnXnXnXnXnXnXnXnX].o ` nX=Xi o ",
". i =XnX .X R.nXnXnXnXnXnXnXnXnXnXs.. $.bXbXbXqXO s h.l b sXbXbXbXbXbXbX6.o  XnXnXnXnXnXnXnXnXnXnX[.@ ` nX=Xi . ",
". i =XnX .o R.nXnXnXnXnXnXnXnXnXnX=.. 6.bXbXbXzX*.> o @ 1 Q b.lXbXbXbXbXl.o I.nXnXnXnXnXnXnXnXnXnX[.@ ` nX=Xi . ",
"@ u =XnX .. R.nXnXnXnXnXnXnXnXnXnX=.. 7.bXbXbXbXbXqXl.s > x & P gXbXbXbXx.O I.nXnXnXnXnXnXnXnXnXnX[.o ` nX=Xi . ",
". w =XnX .. ~.nXnXnXnXnXnXnXnXnXnX~.o $.bXbXbXbXbXbXsXb v G.K . S.bXbXbX7.O  XnXnXnXnXnXnXnXnXnXnX{.o ` nX=Xi . ",
". i =XnX .X R.nXnXnXnXnXnXnXnXnXnX:XO J 0XbXbXbXbXbXsXb v qX%.. N.bXbXaX! o =XnXnXnXnXnXnXnXnXnXnX[.. ` nX=Xi . ",
". i =XnX .o R.nXnXnXnXnXnXnXnXnXnXnXU o b.bXbXK.D ^ S.v l q.9 % qXbXbXA.O A nXnXnXnXnXnXnXnXnXnXnX[.o ` nX=Xi . ",
". i *XnX .. ~.nXnXnXnXnXnXnXnXnXnXnXi.O D gXbXK.s O o . o o 0 n.bXbXhXE . w.nXnXnXnXnXnXnXnXnXnXnX{.O ` nX=Xi X ",
". i =XnX .. w.nXnXnXnXnXnXnXnXnXnXnX1XG . *.gXbXqXB.2.w t 7.8XbXbXzX7.O A <XnXnXnXnXnXnXnXnXnXnXnXs.. ` nX=Xi o ",
"O u =XnX .. u <.2XnXnXnXnXnXnXnXnXnXnX Xu 2 3.gXbXbXqXv D sXbXbXkX7.w w ].nXnXnXnXnXnXnXnXnXnX5Xy.u o ` nX=Xu o ",
". u =XnX+X` f % ..5XnXnXnXnXnXnXnXnXnXnX#Xu O J B.rXbXk.x.bXyXB.I @ u oXnXnXnXnXnXnXnXnXnXnXnXo.% u ( .XnX=Xu o ",
". u =XnXnXnXoXO u w.y.y.u.y.u.u.u.u.u.u.u.` O . o K 3.g.g.5.E O @ . ( y.y.u.y.y.u.y.u.y.u.u.w.f O ].5XnXnX=Xu . ",
"o u =XnXnXnXnXm o @ O . @ . . @ . . . . . . . . . . . . o o . . . . . . O O . . O . O . . . . o 6 5XnXnXnX=Xu . ",
"X > $X5XnXnXnX$XI.I.I.I.I.I.I.I.I.I.I.I.I.I.I.I.s.I.I.I.I.I.I.I.I.I.I.I.I.I.I.I.I.I.I.I.I.I.I.I.#XnXnXnXnX$X> @ ",
". . | 5XnXnXnXnXnXnXnXnXnXnXnXnXnXnXnXnXnXnXnXnXnXnXnXnXnXnXnXnXnXnXnXnXnXnXnXnXnXnXnXnXnXnXnXnXnXnXnXnX2X| . . ",
"  . O Y >.y.y.y.y.y.y.y.y.y.y.y.y.y.y.y.y.y.y.y.y.y.y.y.y.y.y.y.y.y.y.y.y.y.y.y.y.y.y.y.y.y.y.y.y.y.y.:.H O .   ",
"    . . . . . . . . . . . . . . . . . . . . . . . . . . . . . . . . . . . . . . . . . . . . . . . . . . . .     ",
"        . . . . . . . . . . . . . . . . . . . . . . . . . . . . . . . . . . . . . . . . . . . . . . . .         ",
"                                                                                                                ",
"                                                                                                                ",
"                                                                                                                ",
"                                                                                                                ",
"                                                                                                                ",
"                                                                                                                ",
"                                                                                                                ",
"                                                                                                                ",
"                                                                                                                ",
"                                                                                                                ",
"                                                                                                                ",
"                                                                                                                ",
"                                                                                                                "
};
