/* XPM */
static char *_1a65cd5b3e742edd07861e5bd6ed58fUTVs1S2ExBONzDGN[] = {
/* columns rows colors chars-per-pixel */
"56 56 218 2 ",
"   c None",
".  c black",
"X  c #010101",
"o  c #020202",
"O  c gray1",
"+  c #040404",
"@  c gray2",
"#  c #060606",
"$  c #070707",
"%  c gray3",
"&  c #090909",
"*  c gray4",
"=  c #0B0B0B",
"-  c #0C0C0C",
";  c gray5",
":  c #0E0E0E",
">  c gray6",
",  c #101010",
"<  c gray7",
"1  c #131313",
"2  c gray8",
"3  c #151515",
"4  c #161616",
"5  c gray9",
"6  c #181818",
"7  c #191919",
"8  c gray10",
"9  c #1B1B1B",
"0  c gray11",
"q  c #1D1D1D",
"w  c #1E1E1E",
"e  c gray12",
"r  c #202020",
"t  c gray13",
"y  c #222222",
"u  c gray14",
"i  c #252525",
"p  c gray15",
"a  c #272727",
"s  c #282828",
"d  c gray16",
"f  c #2A2A2A",
"g  c #2C2C2C",
"h  c #2D2D2D",
"j  c gray18",
"k  c #2F2F2F",
"l  c gray19",
"z  c #313131",
"x  c #323232",
"c  c gray20",
"v  c #343434",
"b  c #353535",
"n  c gray21",
"m  c #373737",
"M  c gray22",
"N  c #3A3A3A",
"B  c gray23",
"V  c #3C3C3C",
"C  c gray24",
"Z  c #3E3E3E",
"A  c #3F3F3F",
"S  c gray25",
"D  c gray26",
"F  c #434343",
"G  c #444444",
"H  c gray27",
"J  c gray28",
"K  c #484848",
"L  c gray29",
"P  c #4B4B4B",
"I  c #4C4C4C",
"U  c #4E4E4E",
"Y  c gray31",
"T  c #505050",
"R  c #515151",
"E  c gray32",
"W  c #535353",
"Q  c gray33",
"!  c #555555",
"~  c gray34",
"^  c #585858",
"/  c gray35",
"(  c #5A5A5A",
")  c #5B5B5B",
"_  c #5F5F5F",
"`  c gray38",
"'  c #626262",
"]  c gray39",
"[  c #646464",
"{  c #656565",
"}  c #686868",
"|  c #6A6A6A",
" . c gray42",
".. c #6D6D6D",
"X. c gray43",
"o. c #6F6F6F",
"O. c #717171",
"+. c #747474",
"@. c gray46",
"#. c #767676",
"$. c gray47",
"%. c #797979",
"&. c gray48",
"*. c gray49",
"=. c gray50",
"-. c #808080",
";. c gray51",
":. c #838383",
">. c #848484",
",. c #868686",
"<. c gray53",
"1. c #888888",
"2. c #898989",
"3. c gray54",
"4. c #8B8B8B",
"5. c gray55",
"6. c #8D8D8D",
"7. c #8E8E8E",
"8. c gray56",
"9. c #909090",
"0. c #939393",
"q. c gray58",
"w. c #959595",
"e. c gray59",
"r. c #979797",
"t. c #989898",
"y. c gray60",
"u. c #9A9A9A",
"i. c #9B9B9B",
"p. c #9D9D9D",
"a. c gray62",
"s. c #9F9F9F",
"d. c gray63",
"f. c #A2A2A2",
"g. c gray64",
"h. c #A5A5A5",
"j. c gray65",
"k. c #A7A7A7",
"l. c gray66",
"z. c #A9A9A9",
"x. c #AAAAAA",
"c. c gray67",
"v. c #ACACAC",
"b. c gray68",
"n. c #AEAEAE",
"m. c #AFAFAF",
"M. c gray69",
"N. c #B1B1B1",
"B. c #B2B2B2",
"V. c gray70",
"C. c #B4B4B4",
"Z. c gray71",
"A. c #B6B6B6",
"S. c #B7B7B7",
"D. c gray72",
"F. c #B9B9B9",
"G. c gray73",
"H. c #BBBBBB",
"J. c #BCBCBC",
"K. c gray74",
"L. c gray",
"P. c gray75",
"I. c #C0C0C0",
"U. c #C1C1C1",
"Y. c gray76",
"T. c #C3C3C3",
"R. c gray77",
"E. c #C5C5C5",
"W. c #C6C6C6",
"Q. c gray78",
"!. c #C8C8C8",
"~. c #CACACA",
"^. c #CBCBCB",
"/. c #CECECE",
"(. c gray81",
"). c #D0D0D0",
"_. c gray82",
"`. c #D2D2D2",
"'. c gray83",
"]. c #D5D5D5",
"[. c gray84",
"{. c #D7D7D7",
"}. c #D8D8D8",
"|. c #DADADA",
" X c gainsboro",
".X c #DDDDDD",
"XX c gray87",
"oX c #DFDFDF",
"OX c #E1E1E1",
"+X c #E2E2E2",
"@X c #E4E4E4",
"#X c gray90",
"$X c #E6E6E6",
"%X c #E7E7E7",
"&X c gray91",
"*X c #E9E9E9",
"=X c #EAEAEA",
"-X c gray92",
";X c #ECECEC",
":X c gray93",
">X c #EEEEEE",
",X c #EFEFEF",
"<X c gray94",
"1X c #F1F1F1",
"2X c gray95",
"3X c #F3F3F3",
"4X c #F4F4F4",
"5X c gray96",
"6X c #F6F6F6",
"7X c gray97",
"8X c #F8F8F8",
"9X c #F9F9F9",
"0X c gray98",
"qX c #FBFBFB",
"wX c gray99",
"eX c #FDFDFD",
"rX c #FEFEFE",
"tX c white",
/* pixels */
"                                                      . .                                                       ",
"                                        . . . . . . . . . . . . . . . .                                         ",
"                                  . . . . 8 k E <.2.<.2.2.2.9.5.) n c > . . .                                   ",
"                              . . . . 1 ' m.|.,XtXtXtXtXtXtXtXtX5XXX|.c.{ c . . .                               ",
"                            . . 1 L S.,XtXtXtXtXtXtXtXtXtXtXtXtXtXtXtXtXtX1XY.:.c . .                           ",
"                        . . * D F.5XtXtXtXtXtXtXtXtXtXtXtXtXtXtXtXtXtXtXtXtXtXtX@XD * .                         ",
"                      . . * @.tXtXtXtXtXtXtXtXtXtXtXtXtXtXtXtXtXtXtXtXtXtXtXtXtXtX1Xm.8 .                       ",
"                    . . *  .'.tXtXtXtXtXtXtXtXtXtXtXtXtXtXtXtXtXtXtXtXtXtXtXtXtXtXtX,X .. .                     ",
"                    . . ~ ,XtXtXtXtXtXtXtXtXtXtXtXtXtXtXtXtXtXtXtXtXtXtXtXtXtXtXtXtX0X-X' . .                   ",
"                  . . * Y.tXtXtXtXtXtXtXtXtXtX0XtXtXtXtXtXtXtXtXtX0X'.F.+XtXtXtXtXtXtX1XS.n .                   ",
"                  . . ' tXtXtXtXtXtXtXtXtXtXS.) w.,XtXtXtXtXtXtXtX+XI # a B.tXtXtXtXtX5X-XF.e .                 ",
"                  . # :.tXtXtXtXtXtXtXtXtX0Xt.1 8 :.5XtXtXtXtXtXtX5XB.k . A ,XtXtXtXtX0X-X+X' . .               ",
"                  . y B.tXtXtXtXtXtXtXtXtXtX+XE # 8 '.tXtXtXtXtXtXtXtXF.> * P.tXtXtXtXtX@X-Xf.. .               ",
"                  . a S.tXtXtXtXtXtXtXtXtXtXtX,Xe * *.0XtXtXtXtXtXtXtX1Xf # w.0XtXtXtXtX,X-X_.. .               ",
"                  . a F.tXtXtXtXtXtXtXtXtXtXtXXX8 # 2.0XtXtXtXtXtXtXtXY.> * P.0XtXtXtXtX5X-X/.. .               ",
"                  . a S.tXtXtXtXtXtXtXtXtXtX_.n # a @XtXtXtXtXtXtX0XQ.y # D 5XtXtXtXtXtX5X-X!.. .               ",
"                  . 8 m.tXtXtXtXtXtXtXtXtX-X .* a p.tXtXtXtXtXtXtX+X) # k B.tXtXtXtX0XtX1X-X!.. .               ",
"                  . . $.tXtXtXtXtXtXtXtXtX-X:.D p.5XtXtXtXtXtXtXtX@X*.~ S.5XtXtXtXtXtXtX,X@XF.. .               ",
"                  . . n 0XtXtXtXtXtXtXtXtXtXtX0XtXtXtXtXtXtXtXtXtXtXtX0XtXtXtXtXtXtXtX0X-X-X:.. .               ",
"                    . . Y.tXtXtXtXtXtXtXtXtXtXtXtXtXtXtXtXtXtXtXtXtXtXtXtXtXtXtXtXtXtX,X-X'.n . .               ",
"                    . . E -XtXtXtXtXtXtXtXtXtXtXtXtXtXtXtXtXtXtXtXtXtXtXtXtXtXtXtXtX5X-X-XY.a .                 ",
"                    . . 8 B.5XtXtXtXtXtXtXtXtXtXtXtXtXtXtXtXtXtXtXtXtXtXtXtXtXtXtX5X,X@X|.@.# .                 ",
"                      . . c B.tXtXtXtXtXtXtXtXtXtXtXtXtXtXtXtXtXtXtXtXtXtX0XtXtXtX-X@X-Xf.c .                   ",
"                        . . 1 Q.tXtXtXtXtXtXtXtXtXtXtXtXtXtXtXtXtXtXtXtXtXtXtX0X-X-X-Xc.1 . .                   ",
"                          . . * ../.tXtXtXtXtXtXtXtXtXtXtX0XtXtXtXtXtXtXtX5X,X@X-XQ.{ * . .                     ",
"                            . . * n S.1XtX0XtXtXtXtXtXtXtXtXtXtXtX5X5X1X,X-X|.Y.5.N * . .                       ",
"                              . . . 8 E B.'.+X1X0X0X0X1X,X1X,X,X,X@X@X-X_.S.E a # . .                           ",
"                              . . . . . . * e c L ' m.j.:.E E ) G N c c * . . . . . .                           ",
"                              . . . ) :.I a . . . . . . . . . . . . . . * 8 G *.$.* . .                         ",
"                            . . 8 > k t.-X@X_.P.*.E y . . # . c { <.c.P.XX-XXXF.$.# . .                         ",
"                            . 1 5.j.G y E 2.f.Q.'._.D 1 E ) > ) _.Q.j.f.p.$.A y e E n . .                       ",
"                          . . k XXtX-Xj.A * > k G I # n w.t.n 4 I a 4 > * # n { S.XX2.# .                       ",
"                          . . @.0XtXtXtXtXtX@X!.B.p.1 1 +.@.4 A Q.B.S.+X-XtXtXtX5X-X/.k . .                     ",
"                          . . !.tXtXtXtXtXtXtXtXtXP.> > n A # ) tXtXtXtXtXtXtXtXtX-X@X~ . .                     ",
"                        . . k tXtXtXtXtXtXtXtXtX1XE . ) c.P.I . +XtXtXtXtXtXtXtXtX0X@Xc.. .                     ",
"                        . # @.tXtXtXtXtXtXtXtXtXXXN * m.m.p.<.> ..tXtXtXtXtXtXtXtX5X-X@X> .                     ",
"                        . 4 m.tXtXtXtXtXtXtXtXtXS.* t.f.B.B.f.A # 5XtXtXtXtXtXtXtXtX5X-Xe . .                   ",
"                      . . k P.tXtXtXtXtXtXtXtXtXc.# w.m.f.j.c.E . ,XtXtXtXtXtXtXtXtX0X@XG . .                   ",
"                      . . ' |.tXtXtXtXtXtXtXtXtX!.a f j.m.m.w.k L tXtXtXtXtXtXtXtXtX5X-X2.* .                   ",
"                      . . <.-XtXtXtXtXtXtXtXtXtX5X$.# ..c.c.) a '.tXtXtXtXtXtXtXtXtX5X-X5.* .                   ",
"                      . > B.tXtXtXtXtXtXtXtXtXtXtX,X8 n B.@.> w.tXtXtXtXtXtXtXtXtXtXtX-Xw.* .                   ",
"                      . * c.0XtXtXtXtXtXtXtXtXtXtXtX5X8 f * ..0XtXtXtXtXtXtXtXtXtXtXtX,XB.k .                   ",
"                      . # j.0XtXtXtXtXtXtXtXtXtXtXtXtXP.a D tXtXtXtXtXtXtXtXtXtXtXtXtX1XF.N .                   ",
"                    . . * B.tXtXtXtXtXtXtXtXtXtXtXtXtXtXtXtXtXtXtXtXtXtXtXtXtXtXtXtXtX,XP.L . .                 ",
"                      . * m.0XtXtXtXtXtXtXtXtXtX-XS.:.<.2.2.t.Q.XX0XtXtXtXtXtXtXtXtXtX,XQ.) . .                 ",
"                      . * c.0XtXtXtXtXtXtXtXtX5XI 4 . . . . # e k <.+XtXtXtXtXtXtXtXtX,XS.n . .                 ",
"                      . # p.5XtXtXtXtXtXtXtXtXB.. . . . . . . . . # p.-XtXtXtXtXtXtX5X-X!.) . .                 ",
"                      . . n Y.tXtXtXtXtXtXtXtX<.. .               . D +X,X0XtXtXtXtX1X-X$.. .                   ",
"                        . . f p.XX0XtXtXtX0XB.8 . .               . . a F.-X,X0X,X@X-X!.> . .                   ",
"                        . . . * N $.w.p.m.w.f . .                   . . f 5.m.Y.|.5.+.n . .                     ",
"                            . . . . . . . . . .                       . . . . . . . . . . .                     ",
"                                  . . . . . .                             . . . . . .                           ",
"                                                                                                                ",
"                                                                                                                ",
"                                                                                                                ",
"                                                                                                                "
};
