/* XPM */
static char *f85e2ff99c8342d08d99ddb3056f00b1jvYGkHmAHyL7TzdV[] = {
/* columns rows colors chars-per-pixel */
"56 56 49 1 ",
"  c None",
". c #3B6E76",
"X c #3E6F75",
"o c #336A7B",
"O c #30697D",
"+ c #48736E",
"@ c #4B746D",
"# c #406F74",
"$ c #467270",
"% c #D12920",
"& c #718555",
"* c #718556",
"= c #778852",
"- c #97953F",
"; c #A09939",
": c #A29A38",
"> c #CEAD1D",
", c #D1AF1B",
"< c #D3AF1A",
"1 c #DBB316",
"2 c #ECBA0B",
"3 c #E9B90D",
"4 c #EAB90C",
"5 c #EAB90D",
"6 c #E3B611",
"7 c #E1B612",
"8 c #C4A923",
"9 c #C6AA22",
"0 c #C9AB21",
"q c #838D4B",
"w c #8B9046",
"e c #8D9145",
"r c #909343",
"t c #959440",
"y c #155D8D",
"u c #145D8E",
"i c #055697",
"p c #085796",
"a c #0B5993",
"s c #0C5993",
"d c #0E5A92",
"f c #015599",
"g c #00549A",
"h c #01549A",
"j c #045698",
"k c #105B90",
"l c #206287",
"z c #256484",
"x c #296682",
/* pixels */
"                                                        ",
"                                                        ",
"                ggggggggggggggg                         ",
"                ggggggggggggggg                         ",
"                gggggggggggggggg                        ",
"                 ggggggggggggggg                        ",
"                 gggggggggggggggg                       ",
"                 gggggggggggggggg                       ",
"                  ggggggggggggggg             2         ",
"                  gggggggggggggggg            22        ",
"                  gggggggggggggggg            22        ",
"                   ggggggggggggggg            222       ",
"                   gggggggggggggggg           222       ",
"                   gggggggggggggggg          2222       ",
"                    ggggggggggggggg          2222       ",
"                    gggggggggggggggg         222        ",
"                     ggggggggggggggg        2222        ",
"                     gggggggggggggggg       2222        ",
"                 %   gggggggggggggggg       2222        ",
"                %%    ggggggggggggggg      2222         ",
"                %%%   gggggggggggggggg     2222         ",
"               %%%%    ggggggggggggggg    22222         ",
"              %%%%%    gggggggggggggggg   2222          ",
"              %%%%%    gggggggggggggggg  22222          ",
"             %%%%%      ggggggggggggggg  22222          ",
"             %%%%       gggggggggggggggg22222           ",
"             %%%%       ggggggggggggggg$22222           ",
"            %%%%         gggggggggggggd92222            ",
"            %%%%         ggggggggggggg=22222            ",
"            %%%           ggggggggggg.22222             ",
"           %%%%           ggggggggggu>22222             ",
"           %%%%           gggggggggpt22224              ",
"           %%%             gggggggg&22222q              ",
"          %%%%             ggggggg@62222>kg             ",
"          %%%%             ggggggO722224$gg             ",
"          %%%               ggggz<22222rggg             ",
"          %%%               gggl8222220ugggg            ",
"         %%%%                go<222221xggggg            ",
"         %%%%                X<222242+ggggggg           ",
"          %%                 4222224&gggggggg           ",
"          %%                2222222ejgggggggg           ",
"           %              22222222tpgggggggggg          ",
"           %             22222222;sggggggggggg          ",
"                       222222222;sgggggggggggg          ",
"                     2222222222wigggggggggggggg         ",
"                   22222222222  ggggggggggggggg         ",
"                 222222222222   gggggggggggggggg        ",
"             222222222222222    gggggggggggggggg        ",
"             2222222222222       ggggggggggggggg        ",
"              2222222222         gggggggggggggggg       ",
"              22222222            ggggggggggggggg       ",
"              22222                                     ",
"                                                        ",
"                                                        ",
"                                                        ",
"                                                        "
};
