/* XPM */
static char *eb1562c74fbf4de8ffdc4632733bca01lmn21o9UaHruSh9P[] = {
/* columns rows colors chars-per-pixel */
"56 56 47 1 ",
"  c None",
". c #2D687F",
"X c #3B6E77",
"o c #49746E",
"O c #577A66",
"+ c #5E7D61",
"@ c #5F7E61",
"# c #D12920",
"$ c #7E8274",
"% c #9C983C",
"& c #B6A32C",
"* c #BAA529",
"= c #B9A42A",
"- c #BDA628",
"; c #CEAD1D",
": c #DFB513",
"> c #E7B80E",
", c #ECBA0B",
"< c #EAB90C",
"1 c #EAB90D",
"2 c #EBBA0C",
"3 c #E8B80E",
"4 c #E2B611",
"5 c #E0B513",
"6 c #E5B710",
"7 c #C1A825",
"8 c #C3A824",
"9 c #C2A825",
"0 c #CAAB20",
"q c #868E49",
"w c #848D4A",
"e c #858D4A",
"r c #939341",
"t c #175E8C",
"y c #165E8D",
"u c #195F8B",
"i c #0B5994",
"p c #015599",
"a c #025599",
"s c #00549A",
"d c #01549A",
"f c #105B90",
"g c #1D6188",
"h c #216286",
"j c #226386",
"k c #296681",
"l c #286682",
/* pixels */
"                    ssssssssss                          ",
"                    sssssssssss                         ",
"                    sssssssssss                         ",
"                     ssssssssss                         ",
"                     sssssssssss                        ",
"                     sssssssssss         ,              ",
"                      ssssssssss         ,,             ",
"                      sssssssssss        ,,             ",
"                      sssssssssss       ,,,             ",
"                       ssssssssss       ,,,             ",
"                       sssssssssss      ,,              ",
"                       sssssssssss     ,,,              ",
"                    #   ssssssssss     ,,,              ",
"                    ##  sssssssssss    ,,,              ",
"                   ###  sssssssssss   ,,,               ",
"                   ###   ssssssssss   ,,,               ",
"                  ####   sssssssdddd  ,,,               ",
"                  ###    sssssssdddd 2,,                ",
"                  ###     ssssssdddde2,,                ",
"                 ###      ssssssdddh;2,,                ",
"                 ###      sssssssss%,,,                 ",
"                 ##        sssssssk2,,,                 ",
"                ###        ssssssy0,,>                  ",
"                ###        sssssie2,,r                  ",
"                ##          ssssO5,<5gs                 ",
"                ##          sssX2,,2@ss                 ",
"               ###          ssu9,,,=yss                 ",
"               ###           h-,,,5kssss                ",
"               ##            9,,,,@sssss                ",
"                #           ,,,,<essssss                ",
"                #          ,,,,,&ysssssss               ",
"                          ,,,,,=yssssssss               ",
"                        ,,,,,,9ksssssssss               ",
"                      ,,,,,,,,osssssssssss              ",
"                    ,,,,,,,,,  sssssssssss              ",
"                  ,,,,,,,,,,   sssssssssss              ",
"                  ,,,,,,,,      sssssssssss             ",
"                   ,,,,,        ssssssssss              ",
"                   ,,                                   ",
"                                                        ",
"                                                        ",
"                                                        ",
"                                                        ",
"                                                        ",
"                                                        ",
"  $                       $ $                           ",
"                            $                           ",
"   $                        $                           ",
"   $    $         $         $  $$ $              $$     ",
"   $     $                  $     $   $          $      ",
"         $                  $     $              $      ",
"         $                  $                    $      ",
"    $            $          $     $     $        $      ",
"      $$                                                ",
"                                                        ",
"                                                        "
};
