/* XPM */
static char *_31382a395f14da7a347a6c574bf00f62dTPEhoWvDjlXCr7[] = {
/* columns rows colors chars-per-pixel */
"56 56 200 2 ",
"   c None",
".  c #D81C3F",
"X  c #D91C3F",
"o  c #DA1C3F",
"O  c #D9263D",
"+  c #D55330",
"@  c #DC5637",
"#  c #D5503D",
"$  c #E15233",
"%  c #E15234",
"&  c #D8662C",
"*  c #D9772D",
"=  c #DF6533",
"-  c #D86B30",
";  c #D07A32",
":  c #E4632F",
">  c #E5642F",
",  c #E66B2E",
"<  c #E36D2D",
"1  c #E76D2E",
"2  c #E7712D",
"3  c #E7722C",
"4  c #E87B2A",
"5  c #E87F29",
"6  c #E9782C",
"7  c #E56430",
"8  c #E56530",
"9  c #E17330",
"0  c #D92042",
"q  c #D23A4F",
"w  c #DC3554",
"e  c #AF7C5F",
"r  c #B07D60",
"t  c #C75B54",
"y  c #C75958",
"u  c #CA6D46",
"i  c #D06A44",
"p  c #CD774A",
"a  c #CB774F",
"s  c #CF6350",
"d  c #D06B5D",
"f  c #CB7451",
"g  c #CA7B51",
"h  c #E5755C",
"j  c #CB736E",
"k  c #E57473",
"l  c #DC9328",
"z  c #D68F37",
"x  c #D5823A",
"c  c #DE9532",
"v  c #D99F33",
"b  c #EB8429",
"n  c #EB8529",
"m  c #EB8629",
"M  c #E19223",
"N  c #E59E20",
"B  c #E2962D",
"V  c #E3962D",
"C  c #DFB82F",
"Z  c #CFAF3A",
"A  c #DABB30",
"S  c #DABC33",
"D  c #DBBD36",
"F  c #DDBF37",
"G  c #D2B238",
"H  c #D6B738",
"J  c #D6B73A",
"K  c #D7BA3E",
"L  c #DCBF3A",
"P  c #E5A621",
"I  c #E5C61F",
"U  c #F7C71C",
"Y  c #EDD01D",
"T  c #EFD41F",
"R  c #F4D817",
"E  c #FADF15",
"W  c #F9DD16",
"Q  c #F9DE16",
"!  c #FADE16",
"~  c #F0D218",
"^  c #F2D61C",
"/  c #F9D11B",
"(  c #F6DA19",
")  c #F5D91C",
"_  c #FCDE19",
"`  c #FBE015",
"'  c #FBE115",
"]  c #FCE115",
"[  c #FCE215",
"{  c #FCE016",
"}  c #DFC337",
"|  c #E4C523",
" . c #E4C524",
".. c #E6C823",
"X. c #E8CB23",
"o. c #EBCE20",
"O. c #ECCF21",
"+. c #E9CB27",
"@. c #EBCE26",
"#. c #E3C72E",
"$. c #E4C72D",
"%. c #E6CA2D",
"&. c #E5C92F",
"*. c #ECD021",
"=. c #EED223",
"-. c #EBD02F",
";. c #B6945F",
":. c #BC9C5B",
">. c #BB8D60",
",. c #B38668",
"<. c #B69561",
"1. c #B69168",
"2. c #B5966A",
"3. c #B5966B",
"4. c #B5976B",
"5. c #B6976A",
"6. c #B5976D",
"7. c #B89A6A",
"8. c #BB9571",
"9. c #B69871",
"0. c #B89A71",
"q. c #B89A73",
"w. c #B89B73",
"e. c #BA9D72",
"r. c #BB9F73",
"t. c #B99C74",
"y. c #B99D75",
"u. c #BA9D75",
"i. c #BA9E76",
"p. c #BB9E76",
"a. c #BB9F76",
"s. c #BEA169",
"d. c #BDA171",
"f. c #BFA371",
"g. c #BBA077",
"h. c #BCA074",
"j. c #BDA176",
"k. c #BCA078",
"l. c #BCA178",
"z. c #BDA279",
"x. c #BDA37A",
"c. c #BEA27A",
"v. c #BEA37A",
"b. c #BFA578",
"n. c #BFA57A",
"m. c #BEA47B",
"M. c #BFA47B",
"N. c #BFA57C",
"B. c #CC984C",
"V. c #C88652",
"C. c #C5A64E",
"Z. c #CDAE4A",
"A. c #CCAE4D",
"S. c #D0B144",
"D. c #D8BB42",
"F. c #D0B34F",
"G. c #D1B44F",
"H. c #D2B64F",
"J. c #D5B94A",
"K. c #D5B94E",
"L. c #D4B94F",
"P. c #C4A65F",
"I. c #CEB153",
"U. c #D2B759",
"Y. c #D1B65D",
"T. c #C28E6B",
"R. c #C4A762",
"E. c #C0A364",
"W. c #C9AD63",
"Q. c #C1A672",
"!. c #C0A475",
"~. c #C3A871",
"^. c #C5AB72",
"/. c #C6AC73",
"(. c #C0A57C",
"). c #C0A67C",
"_. c #C0A77D",
"`. c #C1A77D",
"'. c #C3AA7D",
"]. c #C1A87E",
"[. c #C2A97E",
"{. c #C2A97F",
"}. c #F3CA4C",
"|. c #380097",
" X c #380098",
".X c #DB7783",
"XX c #E36B81",
"oX c #E88684",
"OX c #C4AC82",
"+X c #C5AD82",
"@X c #C5AD83",
"#X c #C5AE83",
"$X c #C6AF83",
"%X c #C7B082",
"&X c #C7B085",
"*X c #C8B286",
"=X c #CBB589",
"-X c #CDB98C",
";X c #EEB194",
":X c #F0C58A",
/* pixels */
"                                                                                                                ",
"                                                                                                                ",
"                                                                                                                ",
"                                                                                                                ",
"                                                                                                                ",
"                                                                                                                ",
"                                                                                                                ",
"                                                                                                                ",
"                                                                                                                ",
"                                                                                                                ",
"                                                                                                                ",
"                                                                                                                ",
"                                                                                                                ",
"                                                                                                                ",
"                                                                                                                ",
"                                                                                                                ",
"                                                                                                                ",
"                                                                                                                ",
"                                                                                                                ",
"                                                                                                                ",
"      |.|.          |.|.     X|.      ` ` ` `         ] ` `       ] ` ` `         . . . .             . o       ",
"      |.|.          |.|.    |.|.    ` ` ` ` `       H.&.#.K.%.  Q Q ` ` ` `     . . . . . .           . .       ",
"      |.|.|.        |.|.|.  |.|.    ` ` ` %.K S.    ]./.^.].D.  J } +.` ` ` m   . . . . . . .       o . .       ",
"     X|.|.|.       X|.|.|.  |.|.|.  ` ` ..b.].i.  :.(.x.x.N.C.    &XQ.*.` ` ,   . . . . . . .       . . . .     ",
"    |.|.|.|.      |.|.|.|.  |.|.|.  ` ` T s.8.y   j f V.>.g t     h.W.^ ] ] 7   . . o . . . .       . . . .     ",
"    |.|.|.|.|.     X|.|.|. X|.|.|.  ` ( -.A.e 0   :Xh #   $ O   _ 2.J     ` 8   o . .   . . .     . . . . .     ",
"    |.|.|.|.|.     X|.|.|.|.|.|. X  ` G.%X  r w   }.k q   $ O b / 2.i.    ` 8   . . .   o . .     . . . o .     ",
"  |.|.|.|.|.|.     X|.|.|.|.|.|.|.  ` P.-X  ,.oX  ;XXX.X  $ O 4 U 6.(.  Y.` 7   . . .   . . .     . . o . . .   ",
"  |.|.|. X|.|.    |.|.|.|.|.|.|.|.  ` +.0.  1.i   s d u   z x v C 6.x.7.=.E 1   . . . . . . .     . . . . . .   ",
"  |.|.|.  |.|.    |.|.|.|.|.|.|.|.  ` Q Z   <.9   8 @ c   ; - * ) 6.u.A ] ] b   . . . . . . .     . . o . . .   ",
"  |.|.|.  |.|. X  |.|.|.|.|.|.|.|.  ` ~ F   <.3   7 % B   P M N ] 5.h.S R E     . . . . . .     o . .   . . .   ",
"  |.|.|. X|.|.|.   X|.|.|.|.|.|. X  ` I !.  Q.<   7 % B   l + & *.'.(.).F ]     . . o . . o     . . .   . . . o ",
" X|.|.|.|.|.|.|.  |.|.|. X|.|.|.|.  `  .(.  g.T.  p f B.  L.K.  =Xx.x.0. .`     . . . . . .     . . . . . . . . ",
"|.|.|.|.|.|.|.|.  |.|.|.  |.|.|.|.  ` o.~.#X).i.  #X*X].  $X].  g.i.N.  Y ` m   . . .   . . .   . . . . . . . . ",
"|.|.|.|.|.|.|.|.   X|.|.  |.|.|.|.  ` ` } E.h.h.  i.#X#X$Xi.x.  e.d.R.  ` ` 3   . . .   . . .   . . . . . . . . ",
"|.|.|. X X  |.|.   X|.|.  |.|.|.|.  ` ` ` ` ` ]     0.i.a.9.G     ] `   ` ` 8   . . .   . . .   . . . o o . . . ",
"|.|.        |.|.    |.|.    |.|.    ` ` ` ` ` `     F.I.U.Z.o.    ` `     ` 8     . .   o . .   . .         . . ",
"|.|.        |.|.    |. X    |.|.    ` ` ` ` `       ] Q Q Q       ` `     ` 6     .       . .   . .         . . ",
"                                                                                                                ",
"                                                                                                                ",
"                                                                                                                ",
"                                                                                                                ",
"                                                                                                                ",
"                                                                                                                ",
"                                                                                                                ",
"                                                                                                                ",
"                                                                                                                ",
"                                                                                                                ",
"                                                                                                                ",
"                                                                                                                ",
"                                                                                                                ",
"                                                                                                                ",
"                                                                                                                ",
"                                                                                                                ",
"                                                                                                                ",
"                                                                                                                "
};
