/* XPM */
static char *_fb3946a14814d2cc251b7eef4bf03f7ULVnwcn7QEJ7rkMe[] = {
/* columns rows colors chars-per-pixel */
"56 56 238 2 ",
"   c None",
".  c #D90037",
"X  c #D90137",
"o  c #D90138",
"O  c #D90339",
"+  c #D9043A",
"@  c #DA043A",
"#  c #DA063C",
"$  c #DA073D",
"%  c #E13C35",
"&  c #E45337",
"*  c #DE6D3E",
"=  c #DD783B",
"-  c #E76634",
";  c #E76834",
":  c #E86E33",
">  c #E86934",
",  c #E57337",
"<  c #E97133",
"1  c #E97233",
"2  c #E07E36",
"3  c #E17639",
"4  c #E2773B",
"5  c #DB0B40",
"6  c #DB0C40",
"7  c #DB0D41",
"8  c #DB0D42",
"9  c #DC1044",
"0  c #DC1446",
"q  c #D81B47",
"w  c #DD1648",
"e  c #DD1B4D",
"r  c #DD1C4D",
"t  c #D5304D",
"y  c #D03C4E",
"u  c #DA2A53",
"i  c #D94648",
"p  c #D95541",
"a  c #DE7F4A",
"s  c #DA6F5F",
"d  c #D87D51",
"f  c #DA7759",
"g  c #D47E5A",
"h  c #D97B58",
"j  c #E07E43",
"k  c #E07E44",
"l  c #DB6F71",
"z  c #DA6A77",
"x  c #E2796B",
"c  c #E68C2E",
"v  c #E6932D",
"b  c #E48331",
"n  c #E58431",
"m  c #EB8732",
"M  c #EC8832",
"N  c #E88A36",
"B  c #E48B3E",
"V  c #E48B3F",
"C  c #E79430",
"Z  c #E79431",
"A  c #E79537",
"S  c #E99036",
"D  c #E89C36",
"F  c #EAB335",
"G  c #E7B139",
"H  c #DDCF32",
"J  c #D8C837",
"K  c #DACB36",
"L  c #D3C238",
"P  c #D7C738",
"I  c #D3C23C",
"U  c #D5C43E",
"Y  c #D5C43F",
"T  c #D9C93B",
"R  c #D9CA3A",
"E  c #DACA3C",
"W  c #DBCB3E",
"Q  c #DDCD3C",
"!  c #DECE3F",
"~  c #DED031",
"^  c #E6DB29",
"/  c #E5DA2B",
"(  c #E6DB2B",
")  c #E6DA2F",
"_  c #E9DE2B",
"`  c #E9DE2D",
"'  c #EADF2C",
"]  c #EAC136",
"[  c #E9CE3E",
"{  c #E0D332",
"}  c #E3D635",
"|  c #E5DA35",
" . c #EDD03B",
".. c #EDD83A",
"X. c #ECE228",
"o. c #ECE328",
"O. c #EDE328",
"+. c #ECE229",
"@. c #EDE428",
"#. c #EEE428",
"$. c #EEE528",
"%. c #EEE529",
"&. c #EEE52A",
"*. c #EEE62C",
"=. c #EEE62D",
"-. c #EFE62D",
";. c #EFE632",
":. c #EFE633",
">. c #EFE733",
",. c #EFE734",
"<. c #EFE735",
"1. c #979051",
"2. c #989250",
"3. c #A0994D",
"4. c #A0994E",
"5. c #A19A4F",
"6. c #A49C4F",
"7. c #A59E57",
"8. c #B99F5C",
"9. c #BA9F5D",
"0. c #A8A157",
"q. c #BFA55B",
"w. c #AD8F64",
"e. c #B29469",
"r. c #B29569",
"t. c #B3966B",
"y. c #BD9F68",
"u. c #B89A6E",
"i. c #B89B6F",
"p. c #BA9D70",
"a. c #BA9D71",
"s. c #B99D73",
"d. c #BC9F71",
"f. c #BC9F72",
"g. c #BFA561",
"h. c #BBA164",
"j. c #BEA364",
"k. c #BFA46A",
"l. c #BDA073",
"z. c #BEA273",
"x. c #BFA373",
"c. c #BEA174",
"v. c #BEA275",
"b. c #BFA275",
"n. c #BFA375",
"m. c #DC8845",
"M. c #DF9048",
"N. c #CC8A5C",
"B. c #D88555",
"V. c #DC8A56",
"C. c #DB9452",
"Z. c #E28D42",
"A. c #C2AC42",
"S. c #C8B447",
"D. c #CFBC40",
"F. c #C5B04A",
"G. c #C6B14D",
"H. c #CBB64A",
"J. c #CBB74A",
"K. c #CFBC48",
"L. c #D1BE42",
"P. c #D3BF4E",
"I. c #C2AA54",
"U. c #C3AC55",
"Y. c #C3AA5E",
"T. c #C4AB5F",
"R. c #C4AC5E",
"E. c #D9AB55",
"W. c #CEB55E",
"Q. c #DCB650",
"!. c #DAB65A",
"~. c #E2BE4D",
"^. c #C48E69",
"/. c #C48D6E",
"(. c #CD9361",
"). c #CC9A65",
"_. c #C4966B",
"`. c #CC9F75",
"'. c #C79C78",
"]. c #C0A661",
"[. c #C3AA60",
"{. c #C0A56B",
"}. c #C2A76C",
"|. c #C7AC6A",
" X c #C6AB6D",
".X c #C5AA6E",
"XX c #C6AB6F",
"oX c #C6AD6D",
"OX c #C6AC6E",
"+X c #C7AC6E",
"@X c #C6AD6E",
"#X c #C7AD6F",
"$X c #C8AE6C",
"%X c #CEB560",
"&X c #CDB264",
"*X c #C0A476",
"=X c #C2A577",
"-X c #C2A676",
";X c #C3A776",
":X c #C8A874",
">X c #C8AD75",
",X c #C8AF75",
"<X c #C3A679",
"1X c #C6AA79",
"2X c #C5A97B",
"3X c #C6AA7C",
"4X c #C7AB7C",
"5X c #C7AB7D",
"6X c #C7AD7E",
"7X c #F4BA6D",
"8X c #F3B371",
"9X c #D3C049",
"0X c #D4C248",
"qX c #D4C14A",
"wX c #D5C24C",
"eX c #D4C04F",
"rX c #DFD244",
"tX c #D6C251",
"yX c #FBEF5C",
"uX c #F8D770",
"iX c #221E88",
"pX c #231E88",
"aX c #231F88",
"sX c #242089",
"dX c #252189",
"fX c #26228A",
"gX c #27238A",
"hX c #2A268C",
"jX c #2B278D",
"kX c #2C288E",
"lX c #2D2A8E",
"zX c #2E2A8E",
"xX c #2F2B8F",
"cX c #E87F8B",
"vX c #CDB386",
"bX c #CEB58A",
"nX c #D0B585",
"mX c #EDA19A",
/* pixels */
"                                                                                                                ",
"                                                                                                                ",
"                                                                                                                ",
"                                                                                                                ",
"                                                                                                                ",
"                                                                                                                ",
"                                                                                                                ",
"                                                                                                                ",
"                                                                                                                ",
"                                                                                                                ",
"                                                                                                                ",
"                                                                                                                ",
"                                                                                                                ",
"                                                                                                                ",
"                                                                                                                ",
"                                                      $.$.        $.                                            ",
"                                  iXiX2.$.$.$.$.$.$.$.$.$.$.$.$.$.$.                                            ",
"                          iXiXiXiXdXiX4.$.$.$.$.$.$.$.$.$.$.$.$.$.$.$.$.c 8 r @ O . .                           ",
"                          iXiXiXiXiXdX4.$.$.$.$.$.$.$.$.$.$.$.$.$.$.$.$.D w @ . . .                             ",
"                  dXiXiXiXiXiXiXiXiXiX4.$.$.$.$.$.$.$.$.$.$.$.$.$.$.$.;.A @ O . . . . .   . .                   ",
"                dXiXiXiXiXiXiXiXiXiXpX3.$.$.$.$.$.+.9XQ W 0XX.$.$.$.;.>.v . . . . . . . . . . .                 ",
"                  iXiXiXiXiXiXiXiXiXpX4.$.$.) wX9X_ oXb.i.oX) L.qX| <.<.v . . . . . . . . . .                   ",
"            gXiXiXiXiXiXiXiXiXiXiXiXiX4.$.$.XXvX;XwXk.f.b.:XP.z.bXh.$.$.v O . . . . . . . . . . . .             ",
"            iXiX  iXiXiXiXiXiXiXiXiXiX4.$.$.W `.y l s B.C.m.m.V.>XI $.$.v . . . . . . . . . .   . .             ",
"                  iXiXiXiXiXiXiXiXpXpX3.$.} H.^.q uX8Xi Z.: m 4 oXS.H $.v . . . . . . . . . .                   ",
"                iXiXiXiXiXiXiXiXiXpXpX3.` ].f./.u yX7Xt B : m 4 oXb.j.) v . . . . . . . . . .                   ",
"                iXiXiXiXiXiXiXiXiXiXpX3._ R.z.'.x mXcXz Z., N = XX-X]./ v . . . . . . . . . . .                 ",
"                iXiXiXiXiXiXiXiXiXiXpX4.$.R e.:Xd f h g !.E.~.Q.>Xu.L $.v . . . . . . . . . . .                 ",
"            iXiXiXiXiXiXiXiXiXiXiXiXiX3.$.X.H.$Xn > < k [ p % F  XA.X.$.v . . . . . . . . . . . . .             ",
"            iXiXiXiXiXiXiXiXiXiXiXiXiX3.$.R 8.$Xb > < j [ m.N ] XX8.K $.v . . . . . . . . . . . . .             ",
"            iXiXiXiXiXiXiXiXiXiXiXiXiX3.$.L.i.XX2 - < k ..* & F k.f.L.$.v . . . . . . . . . . . . .             ",
"                  iXiXiXiXiXiXiXiXiXiX3.$.tXb.s._.N.(.).%X&X%Xj.e.<XP.$.v . . . . . . . . . .                   ",
"                  iXiXiXiXiXiXiXpXiXiX3.@.Q 6XbXt.i.n.l.b.i.w.i.6X3XR $.v . . . . . . . . . .                   ",
"                iXiXiXiXiXiXiXiXpXpXiX3.$.;.rXG.I.[.x.3X3X-X[.U.F.K X.$.v . . . . . . . . . . .                 ",
"                  iXiXiXiXiXiXiXpXpXpX3.;.;.=.$.$.$.Y.s.3Xq.$.$.$.$.$.$.v . . . . . . . . . .                   ",
"            iXdXiXiXiXiXiXiXiXiXpXpXpX7.>.=.$.$.$.$.~ U U ~ $.$.$.$.$.$.v . . . . . . . . . . 0 9 $             ",
"            iXdX  iXiXiXiXiXiXiXiXiXlX7.,.$.$.$.$.$.$.$.$.$.$.$.$.$.$.$.Z . . . . . . . . . 6   r .             ",
"                  dXiXiXiXiXiXiXdXlXjX7.$.$.$.$.$.$.$.$.$.$.$.$.$.$.$.$.v O . . . . . . O 6 6                   ",
"                      iXiXiXiXiXlXlXhX2.$.$.$.$.$.$.$.$.$.$.$.$.$.$.$.$.  . @ . . . O . 5                       ",
"                                          $.  $.$.$.$.$.$.$.        $.$.                                        ",
"                                                                                                                ",
"                                                                                                                ",
"                                                                                                                ",
"                                                                                                                ",
"                                                                                                                ",
"                                                                                                                ",
"                                                                                                                ",
"                                                                                                                ",
"                                                                                                                ",
"                                                                                                                ",
"                                                                                                                ",
"                                                                                                                ",
"                                                                                                                ",
"                                                                                                                ",
"                                                                                                                ",
"                                                                                                                "
};
