/* XPM */
static char *adbe6e09152a4222e7dd821746acd8bebPuShUEIIhl6xkb7[] = {
/* columns rows colors chars-per-pixel */
"56 56 16 1 ",
"  c #269605",
". c #2A9706",
"X c #269A05",
"o c #2D9C06",
"O c #2F9B08",
"+ c #309E07",
"@ c #329D08",
"# c #399F0A",
"$ c #27A105",
"% c #2EA106",
"& c #31A207",
"* c #33A807",
"= c #34A208",
"- c #39A309",
"; c #37A908",
": c #3AA909",
/* pixels */
"=@+.o%o.o%&=-&+=.=O=%o+Ooo .o+:+.%o+o@o&o%&++:@O=+oO.+%o",
"++oo+%o%oo@oo%=+@%=oo @ooo%ooo-=.++O..%=%X+o+==o@@-=oo+o",
".+oo@=%%o==+o#.@=%=Oo..==-oooo=-+o+=o=O%=o@Ooo+oo%=%&o&o",
"%*o&O=+%+-oo++@@;o.O%%&==-XX+%@@o=-o=+..@=.%oo=oo%oO&=-+",
"==+=o..=%@o.@++++oo.+=%&+@%+++#@+&+&++-:+@++++=&=o&&oo=+",
"%=+o=o+=+&&+o@+=o@o*++&=++oo-&=++=+==+--==.@@o&+@oo=oo+=",
"=o=oO==OooO%@@==ooX+-%%O@@@o=&-==-@++=@&-=.@#oO+@XoOoXo@",
"Oo++o.o+..o=%o+@%%X=-&-o#oo.@o+==++@+@=o=+oo++.=. +o+.=&",
"Xo%=oo%o+o=oo .+o=.%o@@=#+o.o.+-@&++=+@++=oo&=o++oo@O%=o",
"XO%o-o%o-&=&o+@@+++=o@o@+oooo+&%o@.=oO+oo+o=&-o+==o=%-=.",
"oo++*&.@@@@o-*;%+@+=%ooo-@=o=%oo&o.-=@oXo++@@+X%oo+-=X+=",
"%oOO&-%-+++.o+=o=%Ooooo===&&%=oo+%.+%o-$o++@+%++=o%&=O+%",
"%%+o+==+@@@=+o.o.o.%+XO==O+o+ooo.+.+%.:.==Oo%&oo+o%o=%-o",
"Xoo@@@o++o=*;%o+o=$o%o=o==oX+@@@o&&o.&%o-++oo+++oo=%&==%",
"ooo++=+---%*=+o+o- %OOo%OOXX===O-==oo& .-.@oo.o%o+%O%.++",
".oXoo&+===o-&=.-o-.%+OoO%o o=-=.@=+o+@o-oo==o.&+X%Oo.@@@",
"$Xo%oo++.o+=-&o&o-%oo%@.ooXO==+Oooo$&-.&%o-%oo@o=.-%O==+",
" .o%.+o&Ooo=+=-=+--&= -XoooO+==@%oo=.% =&@oooX=o+=-O.@.+",
"..=o=o+o++.o+@oo+o-== @%ooo+-Oo@=.%+oXOo=@.oooOo+=+@%=O=",
"o&+o=&=oO=%.++Oooo=+=oO% X+@=@+==&+@=.oXoo&o%oo+=O-====+",
"&&&@++--=-&X.+++o =%oo%OooO+o-=@@@@+%o+X%oo.=X=++=;-%==@",
"o+o*+@@.++=%o+=#oooo@=o%=&o%o-==@@.+=%==o+@%% =%=OO=.@++",
"@-+*o+o oo=%@==+o%o.@+o&=o.o%%=O=+.&==-%o&&&oo+XO+o% +.@",
"@#++o.o%oOOO@*-&+.Xoo&.Xo+oo%.+%=+oo++o+X+=oooo.oo+++o@o",
"o+oo.o.X.o..%-@.o%o .ooO+-%&o+o@%%oo+o-o=+@oo.oo++oo+@=+",
"+o@.@&oo.=&o=@++++Xo=-&o@o=-++-+ O-%+&+==@@%:o+%%ooO=+@O",
"-@=o&&&&&+=-++o.@+XO=O@o..@@oo%.@.+=+o#@o.@+++o=Ooo@@o.%",
"@+@+%&&&O+@@=%+o==X..Oo.X&&&=.%%+@+o+.@#o+++o%=+&o.@oo=&",
"+oooo@&ooo+o&=%%o+O%;%O%Xo+o-& =@==%O=-%O=X%Ooo+@-=Oo=@@",
"o&o%o+o&==&&&o@o++&*:O%=o=%+o%.==+oo%.-.=ooXo+$%@@&++@@.",
"o@OX=@@--=+==+o=%--$=%%o.+=+ooo=@+o+=oo==%=.+@@oo@o-=+O%",
"oo@oo+=#-@%%.&%%o=;o=%oo-&&%o.O=o+o=-%O+%XO%-@@@+@+=o+&&",
"&o.-o@o-@@oo o+oX=o+@+=X-+=Oo+o@oo++&oo+=.+%=%%+o@+-oo=%",
"o&&%@o+=-&+o..@oO+o-=+Oo==+%o+=&-&+@-+o@@o.o+&%oo@+-..Xo",
" @&=o%o&=X%+&.%+O+o++o.o@@++o=+&:#==#+@--+ooo%o+&+=O=%oo",
"..+.&-%=o.+o=&.oo==%%%O=oo=+oo.o@@-++@@@@==++o+%-==o&%==",
"-o@+=oo=+@+o&&oo+O=O%%==O==.Oo.o@+@o-o=o+=O@ooo-=O+%+.+.",
"%o+oo.O%&=o++@oo.o=@o%%=.%%+++o=*++*-o&+o@-o.. +o=o=+@o ",
"o%+o+oo+o@oo=+oo ===o+O..ooO+=o=@.o+%o&@%&=%%oo%.=.O==+.",
"=@oo=O%=oo&ooOXoo%=-+oo.oo=o-=oo+o@@.o+@oo%=o*=oX%o=+o=o",
"=+%O=++-@.%o%ooo=o@@o=+O+oo-=+@.o+@@o%oo&oo@=o%%%%o.o.%=",
"%+==@=+@@=%&oo%o=@@@o-++.%o++Ooo+--=o=&%ooo.@+Xoo.=ooXoo",
"O.+oo+o@=oo=O=&oo@o%=@@o%--o@@oo@---=@o.o+-%+%&=+@@+-%.o",
"%%%.o..@ooo&==o&o=&.=++==@+OOOo%&+o+@=%o%+&o%%Oo-+o@@.+=",
"==oX-%O-%o..=O++%%%%.+o.+=.%%%%+o+.o=--.%=X.+.@@+%&+oo-*",
"%=Xo++O%.&%o+++o.O=oOoXoOooo-+.+++=%o=-&ooo:+=+%o.@#+&=-",
"+-.X@=%.%Xooo+==Oo%.=o.==o%%=@@@@+@+o+&ooo O*$%o+.@-+@@+",
"o=%%+o.%==o%.o=+=O+o%+o=@oo&-@+@-+o=%%+.o==O%&&=++==+=oo",
".=% ==+++=+oXOo=oo+o.@o=ooo.O%=+o%oO$oo.o&-%O==-%===o&oo",
"%=+.o+oO.o@+Xo+#@o==+.=o%%%==o+o.o&.o.o%..&%oo.;%ooO%o&%",
"X+=%+%X%+o+oX$++oX==oo@o=&%=%&&++o&*%o%%@ooXoo.=%%%-%+=o",
"O%oo=.X%%o+ oo=oo%-#o=&+%%OO@=+oo o-%o+++oo%&+o&=O=-.+o@",
"=&o%=ooooo&%o@.o.o=&+&&&.+%O+==%.o==o.+o+&o=&oooo.@@@*o=",
"@OoOO.=++O=o+.o&.o+.o++=@@o..o@=%+o@=o=o=%%o+O %+ooo.@+o",
"=Ooo.o-%-oo.@o%%%o+oo+++:@.O=o O++.+@.+O-oo+@oXO++&&=-++",
"-o%%Xoo+@oo++oO=o%.@++@o=+X%==%%%o%o=O+.@+@@==-O&=o+==++"
};
