/* XPM */
static char *_ddf0423bc504e469ed62ea0203050b8YxBP71xsewPsM1wN[] = {
/* columns rows colors chars-per-pixel */
"56 56 36 1 ",
"  c #7C8083",
". c #7C7F82",
"X c #7C7E82",
"o c #7D8083",
"O c #7B7F82",
"+ c #7D8184",
"@ c #7D7F83",
"# c #7D7F82",
"$ c #7D7E82",
"% c #7E7F83",
"& c #7C7E81",
"* c #7A7E81",
"= c #7B7D81",
"- c #7B7E81",
"; c #7A7D80",
": c #7C7D81",
"> c #7B7C80",
", c #7C7F83",
"< c #7D8084",
"1 c #7E8083",
"2 c #7A7D81",
"3 c #797D80",
"4 c #7B7E82",
"5 c #7E8084",
"6 c #797C80",
"7 c #7A7C7F",
"8 c #7B7D80",
"9 c #7A7C80",
"0 c #797C7F",
"q c #797B7F",
"w c #787C7F",
"e c #7E8184",
"r c #7F8184",
"t c #7F8285",
"y c #7E8185",
"u c #7F8084",
/* pixels */
" .Xo OX+oo@. #$#o%$&*=--*;-:->*@O,O-.#XOX@..@<#@X$1 -2-:",
"XXX#X...@1oo,@.-#.#-O-O*-=&34O.-*-O-.XX.,4X&-X4XX$@..4-;",
"*X.X..####@.O.@..OX-*&3;*2*;=2:XXX-*XX-..XXX.O-&4.@---*;",
".4-O@. ..o#o@@5o.O,-O&-.:-;-2-#,-.O2*-X&XX:##4-$X-XX:-:=",
"4..-Xo@@@5%@. -@@..4-4-==-24&XX*-.,*X$--X...OXOX...2=*=4",
"$.X*O,O@.%@#@X,.X-*-;32*;2;;=2XX=&.=&---$.XX-..X.X4*3223",
"4X$&@..@X....XO=X;*=67*==->-:&#.4-O-#.2-.%oX#$ .-X-4;O;*",
"@,.@,4X.. @.@=@-X*--=3*3:;;=-=4X=--*:8XXX#O-X##..XO-=2;*",
".@4#@XX ..O&&=.XX-X.*=3;;*&2344*=X..=XX-OXXX#..X@O.49=--",
"...X. &@O.,.X4@X&X4.;-;;--X==-=;--4X.X--==:XX##.OO.*2=4-",
"*X---.X-%#,...&.X=O-3-;;--X;4*82;2*=4=4-43;=-*X4X--;2-O;",
";4-2*O...#..XX4X-=4X**3==2*3X2;*;;-2=2*--63;O=-9-2=*;8;;",
"3-4-8--@44.4-*=2--22*32;-;*9>863303;;23===2=4--8*X=23;*;",
";2-3--&-.42==4;-4.--=*;;***30026q9;0*23;29;-X*-==*==2--*",
"0;02*&*:4O*;8**-**3;-4;28=www;>3600w36>3;;*;=-;0>6=;=*3w",
"=;;9*XO4O*29*;*=;;;==;6;;33;;29;;00839-;;9;6=;;*;939293=",
"=2-=*4-.O*3;*3-2=;;&*-8;-;**33;2233930;0;;;;3*9=9=-32=**",
"=;-XX=2**23***-;:-*-*;42--;-=O*2;;3;;939-9333*;8=*4=&-22",
";2;-.-O3--2*2-2XX-.4--;**-2=**;8*-3*;-X8=*23=3=;89--2-2;",
"=XX4@.,4-2*O4-.-O- .4.-4-=*-2-;==;242*44-.2;2*--X-XOX2=&",
"O2.-X....4.4X4 OO4$X-#OO-;=4*-26*-3--=9*4#2*2*;-2.****;*",
"-&X$O,@@, .*-XO#@--,O.-4--X-X-*2*;***-X.-@OO--*.=---**-O",
"*4*-@ @5< .X@@,#,O44.4-.-..:X=;28;624=-2O O.O-24.-4.*..-",
"2-4&5oo+ooX-.$.&4.4-.X4-..--2633860;-;;*4-***--=-.O.. X-",
"$2.&<o+o#o..XO,42XOX -O*O.2-=;;096-3-*X=--O*O2=X=...,#--",
"X-*-, @%@,O..@..4..OO-,..@X&*=;9q73&=-=*-X@.44XX--X@@@@X",
".XXX O5o,.,,.,@%XXO..-O.,1$;-;;90;2*&-*4-3@X-4.#-X.,,..;",
" $,,@oo@.@o4XO,OO,X..@.@O-*.9-0333*&4X1..XO..4. .O@@OX=O",
"#..@X, .o@.@@.O#.o@%,X4O@&-.-*24#.$XO ,...$@o.o..X..%@, ",
"1oo5%oo@$@@o  .@.<1%@ee+e1@oo @X.ooo@.55,<%r5o@%@@<ooo1@",
"@<@,@@+. .  ,o,@. o5@t1551%.o@@X,@oo@Xo1@ o5<5o@5 @@@ #%",
"@<.o. oX.%1o@ -@1  O<+5@5<@X@##@.@$o,.% @e o1< @ @o.,@.@",
"5@,#@4.@X..,.O.o%5..@1 , oo o,@@1e.#o,,ooy . 5%1,@@,X..#",
"@@,@@...X@...%o@%1X,#o ,+@o4O,@1@o @ .o<..@X.o5o O@o..$@",
"#@%@@,O..@1@ .o@oo.%5< . 1@  OO%..oOXXX 4@+o#ooXoo @@O O",
".,.X%@.o@@@X o@o@5@<,o@ 1@o5$@#O.4@....#oouO@1o$.  o@.o.",
"-..@%...4X., oo@@@5o@@o1<%@ .,@@OO.X@XX..,@o,o5X..,@.&.4",
"O.X.,.X4X.#.,< o,o<@o@oo%.,.@.oX.,X,XO:o  @#.o5.#X. X4X.",
"X#@. 4.X..%...@@#1@@@,@@@o%#.@@o@.o,XO.o.,@ o ,.#@.@4.X#",
"O.X..X.X.....X.X,.@@1 ,@,@@<O,@*#.O.4.,,O.O. 5@4%X,.,.X@",
"4# OXXO*$4..,:1.@oo1.o@@O@XOOX,.OO4 .XO.,X*4.  4,@OO-44X",
"*$O& $.4. oXX.,,$,o1  ..% o X.OO O- :-.@.*O.X#.-$#&#O.4O",
"OXOO,.*.%@#.X.,.#O.$X@oo .@.<..O,--.XO.O..o@X @@OO.#@-O@",
".O@,,O@@@o..#,@.XXo..,@ @,- Xo$O.X#..OO44-4-=O  .o.#.. @",
"O@ oo,o@#@ ,##.o$$.,@ o.o@@o@@@@X.XO.4.O4&-X444OX,,..o $",
".XX.#.<@o$1@e#oo..O@O 5 .  o5@%ooo,XO-O&XX--O..#O.XX#o@5",
"-..4X@@ooo,@oo,oO.5o%oo@1<oooX@$$X,*4*-X--OX-$..X,.X1 <o",
"-.X4.#X@X OX$5@.#Xoo..1oo ..@X#@,XO*--&X*4--;-.-OOO...@4",
"*OX- 4-%..&XO.-XXO@,#,O,e1< o.X@#@OOOO:X-X;*OXX&O-O4X.@.",
"-*-.OO:.$#:...X*XXO.#.  o.#,X.X@.4O*=23O-**:2-.X&-X.X&,.",
".O.X-4.-&44X.,-4.4..@...@X%X,1<.OO**.-X==*;-=.##X.=*-O-X",
"O.X-X.*-4@.X-OX..O,4o.o 5@@O ..,.O.*O*8*---48O-X.$X.4-*:",
"2---=:OX&$OX:*.XO*XXO...@.@.,XX.&=O;2;*;;;;82-X-O--=24XO",
"4=4O..=X.oX-@.@#X.-@...,#X,$OO-X=--=3*2;&=*&=O.X*44XO**X",
"-24OO-*-&XX-4X @X@..XO.$o..@-@X---*2;;;==-*=24X&=$-.*-OX",
";*X#2-=-,,O4@-#.%-,,X4.*$4-OX-4---.**3333OO32.*;-$O-=4-$"
};
