/* XPM */
static char *dfd7bcca29914c02c6c5b664ff1c9c74jiq4g4ktpMruPt12[] = {
/* columns rows colors chars-per-pixel */
"56 56 221 2 ",
"   c None",
".  c black",
"X  c #010101",
"o  c #020202",
"O  c gray1",
"+  c #040404",
"@  c gray2",
"#  c #060606",
"$  c #070707",
"%  c gray3",
"&  c #090909",
"*  c gray4",
"=  c #0B0B0B",
"-  c #0C0C0C",
";  c gray5",
":  c gray6",
">  c #101010",
",  c #111111",
"<  c gray7",
"1  c #131313",
"2  c gray8",
"3  c #151515",
"4  c #161616",
"5  c gray9",
"6  c #181818",
"7  c #191919",
"8  c #1B1B1B",
"9  c gray11",
"0  c #1D1D1D",
"q  c #1E1E1E",
"w  c gray12",
"e  c #202020",
"r  c gray13",
"t  c #222222",
"y  c #232323",
"u  c gray14",
"i  c gray15",
"p  c gray16",
"a  c #2D2D2D",
"s  c gray18",
"d  c #2F2F2F",
"f  c gray19",
"g  c #313131",
"h  c #323232",
"j  c gray20",
"k  c #343434",
"l  c #353535",
"z  c gray21",
"x  c #373737",
"c  c gray22",
"v  c #393939",
"b  c #3A3A3A",
"n  c gray23",
"m  c gray24",
"M  c #3F3F3F",
"N  c gray25",
"B  c #414141",
"V  c gray26",
"C  c #434343",
"Z  c #444444",
"A  c #464646",
"S  c gray28",
"D  c #484848",
"F  c #494949",
"G  c gray29",
"H  c #4B4B4B",
"J  c #4C4C4C",
"K  c gray30",
"L  c #4E4E4E",
"P  c gray31",
"I  c #505050",
"U  c gray33",
"Y  c #555555",
"T  c #565656",
"R  c gray34",
"E  c #585858",
"W  c gray35",
"Q  c #5A5A5A",
"!  c #5B5B5B",
"~  c gray36",
"^  c #606060",
"/  c gray38",
"(  c #626262",
")  c gray39",
"_  c #646464",
"`  c #656565",
"'  c gray40",
"]  c #676767",
"[  c #686868",
"{  c DimGray",
"}  c #6A6A6A",
"|  c gray42",
" . c #6C6C6C",
".. c #6D6D6D",
"X. c gray43",
"o. c #6F6F6F",
"O. c gray44",
"+. c #727272",
"@. c gray45",
"#. c #747474",
"$. c #767676",
"%. c #777777",
"&. c gray47",
"*. c #797979",
"=. c gray48",
"-. c #7C7C7C",
";. c #7E7E7E",
":. c gray50",
">. c #808080",
",. c #818181",
"<. c #848484",
"1. c #868686",
"2. c gray53",
"3. c #888888",
"4. c #898989",
"5. c gray54",
"6. c #8B8B8B",
"7. c gray55",
"8. c #8D8D8D",
"9. c #8E8E8E",
"0. c gray56",
"q. c #909090",
"w. c gray57",
"e. c #929292",
"r. c gray58",
"t. c gray59",
"y. c #979797",
"u. c #989898",
"i. c gray60",
"p. c #9A9A9A",
"a. c #9B9B9B",
"s. c gray61",
"d. c #9D9D9D",
"f. c gray62",
"g. c #9F9F9F",
"h. c #A0A0A0",
"j. c gray63",
"k. c gray64",
"l. c #A4A4A4",
"z. c #A5A5A5",
"x. c gray65",
"c. c #A7A7A7",
"v. c gray66",
"b. c #A9A9A9",
"n. c #AAAAAA",
"m. c gray67",
"M. c #ACACAC",
"N. c gray68",
"B. c #AEAEAE",
"V. c #AFAFAF",
"C. c gray69",
"Z. c #B1B1B1",
"A. c #B2B2B2",
"S. c gray70",
"D. c #B4B4B4",
"F. c gray71",
"G. c #B6B6B6",
"H. c #B7B7B7",
"J. c gray72",
"K. c #B9B9B9",
"L. c #BCBCBC",
"P. c gray74",
"I. c #C0C0C0",
"U. c #C1C1C1",
"Y. c gray76",
"T. c #C3C3C3",
"R. c #C5C5C5",
"E. c #C6C6C6",
"W. c gray78",
"Q. c #C8C8C8",
"!. c gray79",
"~. c #CACACA",
"^. c gray80",
"/. c #CDCDCD",
"(. c #CECECE",
"). c gray81",
"_. c #D0D0D0",
"`. c gray82",
"'. c LightGray",
"]. c #D5D5D5",
"[. c gray84",
"{. c #D7D7D7",
"}. c #D8D8D8",
"|. c gray85",
" X c #DADADA",
".X c gray86",
"XX c #DDDDDD",
"oX c gray87",
"OX c #DFDFDF",
"+X c gray88",
"@X c #E1E1E1",
"#X c #E2E2E2",
"$X c gray89",
"%X c #E4E4E4",
"&X c gray90",
"*X c #E6E6E6",
"=X c #E7E7E7",
"-X c gray91",
";X c #E9E9E9",
":X c #EAEAEA",
">X c gray92",
",X c #ECECEC",
"<X c gray93",
"1X c #EEEEEE",
"2X c #EFEFEF",
"3X c gray94",
"4X c #F1F1F1",
"5X c gray95",
"6X c #F3F3F3",
"7X c #F4F4F4",
"8X c gray96",
"9X c #F6F6F6",
"0X c gray97",
"qX c #F8F8F8",
"wX c #F9F9F9",
"eX c gray98",
"rX c #FBFBFB",
"tX c gray99",
"yX c #FDFDFD",
"uX c #FEFEFE",
"iX c white",
/* pixels */
"                                            . . . . . . . .                                                     ",
"                                  . . . . . . = - - = = $ $ $ . . . . .                                         ",
"                            . . . . . = H ~ %.B.D.D.D.S.m.h.<.W n - . $ . . . . .                               ",
"                        . . . . = B :.W.8XyXyXyXyXyXyXyXyXyXyXyXyX<XQ.m.%.B 2 . . . .                           ",
"                      . . . > [ c.+XeXyXyXyXyXyXyXyXyXyXyXyXyXyXyXyXyXyXeX*XD.:.n $ . .                         ",
"                    . . . t 6.eXyXyXyXyXyXyXyXyXyXyXyXyXyXyXyXyXyXyXyXyXyXyXyXyX.XR - . . .                     ",
"                  . . $ I U.eXyXyXyXyXyXyXyXyXyXyXyXyXyXyXyXyXyXyXyXyXyXyXyXyXyXyX;Xr.w . . .                   ",
"                . . $ H *XyXyXyXyXyXyXyXyXyXyXyXyXyXyXyXyXyXyXyXyXyXyXyXyXyXyXyXyXyXyX`.d . . .                 ",
"              . . $ B P.yXyXyXyXyXyXyXyXyXyXyXyXyXyXyXyXyXyXyXyXyXyXyXyXyXyXyXyXyXyXyXyX6.7 . . .               ",
"              . . Z W.yXyXyXyX;X`.3XyXyXyXyXyXyXyXyXyXyXyXyXyXyXyXyXyXyXyXyXyXyXyXyXyXyX3X+.> . .               ",
"            . . $ D.yXyXyXyXP.w 2 :.8XyXyXyXyXyXyXyXyXyXyXyXyXyXyXyXyXyXyXyXyXyXyXyXyXyXyX.XH . . .             ",
"            . . - *XyXyXyX.X~ $ $ r.yXyXyXyXyXyXyXyXyXyXyXyXyXyXyXyXyXyXyXyXyXyXyXyXyXyXyX8X[ . . .             ",
"          . . . d 8XyXyXeXq.t . z <XyXyXyXyXyXyXyXyXyXyXyXyXyXyXyXyXyXyXyXyXyXyXyXyXyXyXyXyXS.. . . .           ",
"          . . . 8.eXyXyX;XW = - D.yXyXyXyXyXyXyXyXyXyXyXyXyXyXyXyXyXyXyXyXyXyXyXyXyXyXyXyXyXeXt . . .           ",
"          . . . D.yXyXyXXXP $ 2 ;XyXyXyXyXyXyXyXyXyXyXyXyXyXyXyXyXyXyXyXyXyXyXyXyXyXyXyXyXyXyX~ . . .           ",
"          . . > 3XyXyXyX;X~ = = <.yXyXyXyXyXyXyXyXyXyXyXyXyXyXyXyXyXyXyXyXyXyXyXyXyXyXyXyXyXyXc.= . .           ",
"          . . = 3XyXyXyXyXh.p . - `.yXyXyXyXyXyXyXyXyXyXyXyXyXyXyXyXyXyXyXyXyXyXyXyXyXyXyXyXyXm.$ . .           ",
"          . . $ +XyXyXyXyX;X( . > W.eXyXyXyXyXyXyXyXyXyXyXyXyXyXyXyXyXyXyXyXyXyXyXyXyXyXyXyXyXr.$ . .           ",
"          . . $ c.yXyXyXyXyX8X)..XeXyXyXyXyXyXyXyXyXyXyXyXyXyXyXyXyXyXyXyXyXyXyXyXyXyXyXyXyXyXP . . .           ",
"          . . . Z eXyXyXyXyXyXyXyXyXyXyXyXyXyXyXyXyXyXyXyXyXyXyXyXyXyXyXyXyXyXyXyXyXyXyXyXyX3X2 . . .           ",
"            . . - ].yXyXyXyXyXyXyXyXyXyXyXyXyXyXyXyXyXyXyXyXyXyXyXyXyXyXyXyXyXyXyXyXyXyXyXyX].= . . .           ",
"            . . . ~ <XyXyXyXyXyXyXyXyXyXyXyXyXyXyXyXyXyXyXyXyXyXyXyXyXyXyXyXyXyXyXyXyXyXyX8XX.. . .             ",
"              . . 7 :.<XyXyXyXyXyXyXyXyXyXyXyXyXyXyXyXyXyXyXyXyXyXyXyXyXyXyXyXyXyXyXyXyXyXS.h . . .             ",
"                . . w &.*XyXyXyXyXyXyXyXyXyXyXyXyXyXyXyXyXyXyXyXyXyXyXyXyXyXyXyXyXyXyXyX.XW = . .               ",
"                  . . - [ ].eXyXyXyXyXyXyXyXyXyXyXyXyXyXyXyXyXyXyXyXyXyXyXyXyXyXyXyXyX<XX.2 . .                 ",
"                    . . . m m.eXyXyXyXyXyXyXyXyXyXyXyXyXyXyXyXyXyXyXyXyXyXyXyXyXyXeX.X%.= . .                   ",
"                      . . . w X.K.;XyXyXyXyXyXyXyXyXyXyXyXyXyXyXyXeX8X8XeX8X3X8X.X8.B = . .                     ",
"                        . . . . 2 P q..X;X;X3XeXyXyX8X8X3X3X3X3X3X;X;X;X;X*XQ.6.h $ . . .                       ",
"                          . . . . . . = 7 n ~ p.p.D.Q.W.D.s.r.h.h.<.+.[ ( z = . . . . .                         ",
"                          . - n . = w i > . . . . 7 d d w = . = $ . . . . . = h H i $ .                         ",
"                        . 2 W p.w h h.W.m.<._ P > = = $ $ = = $ > i z R W :.m.).W.B $ .                         ",
"                        . ( r.r.B 2 _ m.W..X;X+X;X*X+X).XX*X+X+X;X<X<X<X*X].B.W p $ . . .                       ",
"                        . d R Z w 7 H ( [ _ &.I ( %.( R _ X.+.[ _ _ ~ R ~ [ _ W _ [ n . .                       ",
"                        . $ $ $ d D.;X8X;X`.`.c.s.:.+.[ _ W _ +.6.r.p.c.K..X3X8XeXXX+.- .                       ",
"                        $ W :.. D.yXyXyXeXyXeXeXyXyXeXeXyXyXyXyXyXyXyXyXyXyXyXyXyX8Xs.2 . .                     ",
"                      . B r.W.d $ eXyXyXyXyXyXyXyXyXyXyXyXyXyXyXyXyXyXyXyXyXyXyXyXyXW.m . .                     ",
"                    . . [ S.K.[ . c.yXyXyXyXyXyXyXyXyXyXyXyXyXyXyXyXyXyXyXyXyXyXyXyX).P . .                     ",
"                    . t 6.c.K.K.$ R eXyXyXyXyXyXyXyXyXyXyXyXyXyXyXyXyXyXyXyXyXyXyXyX).Z . .                     ",
"                    . w s.S.B.c.> R eXyXyXyXyXyXyXyXyXyXyXyXyXyXyXyXyXyXyXyXyXyXyXyXQ.B . .                     ",
"                    . t 6.m.K.P = 6.yXyXyXyXyXyXyXyXyXyXyXyXyXyXyXyXyXyXyXyXyXyXyXyXU.m . .                     ",
"                    . . &.U.p.. $ ].yXyXyXyXyXyXyXyXyXyXyXyXyXyXyXyXyXyXyXyXyXyXyXyXW.B . .                     ",
"                      . = z 7 2 m.yXyXyXyXyXyXyXyXyXyXyXyXyXyXyXyXyXyXyXyXyXyXyXyX8Xm.i . .                     ",
"                        . . $ B.yXyXyXyXyXyXyXyXyXyXyXyXyXyXyXyXyXyXyXyXyXyXyXyXyX*X<.> .                       ",
"                        . . m 3XyXyXyXyXyXyXyXyXyXyXyXyXyXyXyXyXyXyXyXyXyXyXyXeXXX,.7 . .                       ",
"                        . . . h %.).*XeXyXyXyXyXyXyXyXyXyXyXyXyXyXyXyXyX8X).S.D.P . . .                         ",
"                          . . . $ z H q.eXyXyXyXyXyXyXyXyXyXyXyXyXyXyXeX8.B t t $ . .                           ",
"                              . . . . 2 B.8XyXyXyXyXyXyXyXyXyXyXyXyX`.P . . . .                                 ",
"                                  . . $ <.;XyXyXyXyXyXyXyXyXyXyXyX3Xs.> . .                                     ",
"                                    . . %.+XeXyXyXyXyXyXyXyXyXyXyX.X( $ . .                                     ",
"                                    . . z D.8XeXyXyXyXyXyXyXyXyXyX&.- . .                                       ",
"                                    . . . Z B.<X3XyXyXyXyXyXyX<XXXZ . . .                                       ",
"                                      . . . i W ( 8.c.B.h.q.:.W n $ . .                                         ",
"                                        . . . . . = = - = $ $ . . . .                                           ",
"                                              . . . . . . . . . .                                               ",
"                                                                                                                ",
"                                                                                                                "
};
