/* XPM */
static char *c453277525524327c4e38f9b8013fd65oaXS7vFugNF1fJcT[] = {
/* columns rows colors chars-per-pixel */
"56 56 56 1 ",
"  c None",
". c red",
"X c #FF0101",
"o c #FF0202",
"O c #FF0303",
"+ c #FF0606",
"@ c #FF0707",
"# c #FF0808",
"$ c #FF0909",
"% c #FF0A0A",
"& c #FF0B0B",
"* c #FF0D0D",
"= c #FF1212",
"- c #FF1313",
"; c #FF1E1E",
": c #FF2020",
"> c #FF2525",
", c #FF2727",
"< c #FF2C2C",
"1 c #FF3232",
"2 c #FF3535",
"3 c #FF4040",
"4 c #FF4343",
"5 c #FF4747",
"6 c #FF5353",
"7 c #FF5454",
"8 c #FF5858",
"9 c #FF5B5B",
"0 c #FF6464",
"q c #FF6F6F",
"w c #FF7474",
"e c #FF7575",
"r c #FF8484",
"t c #FF8585",
"y c #FF8787",
"u c #FF8888",
"i c #FF9C9C",
"p c #FFA3A3",
"a c #FFAAAA",
"s c #FFAEAE",
"d c #FFB8B8",
"f c #FFC7C7",
"g c #FFCECE",
"h c #FFD2D2",
"j c #FFD5D5",
"k c #FFE3E3",
"l c #FFE5E5",
"z c #FFE7E7",
"x c #FFF0F0",
"c c #FFF2F2",
"v c #FFF4F4",
"b c #FFF9F9",
"n c snow",
"m c #FFFDFD",
"M c #FFFEFE",
"N c white",
/* pixels */
"                   ..................                   ",
"         .......................................        ",
"     .............................................      ",
"    ................................................    ",
"   .................................................    ",
"   ..................................................   ",
"  ....................................................  ",
"  ....................................................  ",
"  ....................................................  ",
" .....................................................  ",
" .....................................................  ",
" ...................................................... ",
" ...................................................... ",
" ...................................................... ",
" ...................................................... ",
" ...................................................... ",
" .....................3,............................... ",
" .....................9j4.............................. ",
" .....................9Nz0@............................ ",
" .....................9NNvy*........................... ",
" .....................9NNNNp;.......................... ",
" .....................9NNNNNf2......................... ",
"......................9NNNNNNl<........................ ",
"......................9NNNNNNNx9....................... ",
"......................9NNNNNNNNny...................... ",
"......................9NNNNNNNNNNd*.................... ",
"......................9NNNNNNNNNNNh,................... ",
"......................9NNNNNNNNNNNNl4.................. ",
"......................9NNNNNNNNNNNNNi.................. ",
"......................9NNNNNNNNNNNnq................... ",
"......................9NNNNNNNNNNx3.................... ",
"......................9NNNNNNNNNh,..................... ",
"......................9NNNNNNNNs=...................... ",
"......................9NNNNNNNy@....................... ",
" .....................9NNNNNxw&........................ ",
" .....................9NNNNk7.......................... ",
" .....................9NNNg1........................... ",
" .....................9NNa:............................ ",
" .....................9nr=............................. ",
" .....................7w&.............................. ",
" .....................&................................ ",
" ...................................................... ",
" ...................................................... ",
" ...................................................... ",
" ...................................................... ",
" ...................................................... ",
" .....................................................  ",
"  ....................................................  ",
"  ....................................................  ",
"  ....................................................  ",
"   ..................................................   ",
"   ..................................................   ",
"    ................................................    ",
"     ..............................................     ",
"       ..........................................       ",
"             ..............................             "
};
