/* XPM */
static char *_a731c5382be419185e6802ba6582d4cdL4IK17ydDJXyq71[] = {
/* columns rows colors chars-per-pixel */
"56 56 212 2 ",
"   c None",
".  c black",
"X  c #010101",
"o  c #020202",
"O  c gray1",
"+  c #040404",
"@  c gray2",
"#  c #060606",
"$  c #070707",
"%  c gray3",
"&  c #090909",
"*  c gray4",
"=  c #0B0B0B",
"-  c #0C0C0C",
";  c gray5",
":  c #0E0E0E",
">  c gray6",
",  c #101010",
"<  c #111111",
"1  c gray7",
"2  c #131313",
"3  c gray8",
"4  c #151515",
"5  c #161616",
"6  c gray9",
"7  c #181818",
"8  c #191919",
"9  c gray10",
"0  c #1B1B1B",
"q  c gray11",
"w  c #1D1D1D",
"e  c #1E1E1E",
"r  c gray12",
"t  c #202020",
"y  c gray13",
"u  c #222222",
"i  c #232323",
"p  c gray14",
"a  c gray15",
"s  c #272727",
"d  c #282828",
"f  c #2A2A2A",
"g  c #2D2D2D",
"h  c gray18",
"j  c #2F2F2F",
"k  c gray19",
"l  c #313131",
"z  c #323232",
"x  c gray20",
"c  c #343434",
"v  c #353535",
"b  c gray21",
"n  c #373737",
"m  c gray22",
"M  c #393939",
"N  c #3A3A3A",
"B  c gray23",
"V  c #3E3E3E",
"C  c #3F3F3F",
"Z  c gray25",
"A  c #414141",
"S  c #434343",
"D  c #444444",
"F  c gray27",
"G  c gray28",
"H  c #484848",
"J  c #494949",
"K  c gray29",
"L  c #4B4B4B",
"P  c #4C4C4C",
"I  c gray30",
"U  c #4E4E4E",
"Y  c gray31",
"T  c #505050",
"R  c #515151",
"E  c gray32",
"W  c #535353",
"Q  c gray33",
"!  c #555555",
"~  c gray34",
"^  c #585858",
"/  c gray35",
"(  c #5A5A5A",
")  c #5B5B5B",
"_  c gray36",
"`  c #5D5D5D",
"'  c #5F5F5F",
"]  c #606060",
"[  c gray38",
"{  c #626262",
"}  c gray39",
"|  c gray40",
" . c gray42",
".. c #6D6D6D",
"X. c gray43",
"o. c #6F6F6F",
"O. c gray44",
"+. c #717171",
"@. c #727272",
"#. c gray45",
"$. c #747474",
"%. c gray46",
"&. c #767676",
"*. c gray47",
"=. c #797979",
"-. c gray48",
";. c #7B7B7B",
":. c #7C7C7C",
">. c #7E7E7E",
",. c #808080",
"<. c #818181",
"1. c gray51",
"2. c #838383",
"3. c #848484",
"4. c gray52",
"5. c #868686",
"6. c #898989",
"7. c #8B8B8B",
"8. c gray55",
"9. c #8D8D8D",
"0. c gray56",
"q. c #909090",
"w. c gray57",
"e. c #929292",
"r. c gray58",
"t. c gray59",
"y. c #979797",
"u. c #989898",
"i. c gray60",
"p. c #9A9A9A",
"a. c #9B9B9B",
"s. c #9D9D9D",
"d. c #9F9F9F",
"f. c #A0A0A0",
"g. c #A2A2A2",
"h. c gray65",
"j. c #A7A7A7",
"k. c gray66",
"l. c #A9A9A9",
"z. c gray67",
"x. c #ACACAC",
"c. c gray68",
"v. c #AEAEAE",
"b. c #AFAFAF",
"n. c #B1B1B1",
"m. c gray70",
"M. c #B4B4B4",
"N. c gray71",
"B. c #B6B6B6",
"V. c #B7B7B7",
"C. c gray72",
"Z. c #B9B9B9",
"A. c gray73",
"S. c #BCBCBC",
"D. c gray",
"F. c #C0C0C0",
"G. c #C1C1C1",
"H. c gray76",
"J. c #C3C3C3",
"K. c gray77",
"L. c #C5C5C5",
"P. c #C6C6C6",
"I. c #C8C8C8",
"U. c #CACACA",
"Y. c #CBCBCB",
"T. c gray80",
"R. c #CDCDCD",
"E. c #CECECE",
"W. c gray81",
"Q. c #D2D2D2",
"!. c LightGray",
"~. c gray83",
"^. c #D5D5D5",
"/. c #D7D7D7",
"(. c #D8D8D8",
"). c gray85",
"_. c gainsboro",
"`. c #DDDDDD",
"'. c gray87",
"]. c #DFDFDF",
"[. c gray88",
"{. c #E1E1E1",
"}. c #E2E2E2",
"|. c gray89",
" X c #E4E4E4",
".X c gray90",
"XX c #E6E6E6",
"oX c #E7E7E7",
"OX c gray91",
"+X c #E9E9E9",
"@X c #EAEAEA",
"#X c gray92",
"$X c #ECECEC",
"%X c gray93",
"&X c #EEEEEE",
"*X c #EFEFEF",
"=X c gray94",
"-X c #F1F1F1",
";X c gray95",
":X c #F3F3F3",
">X c #F4F4F4",
",X c gray96",
"<X c #F6F6F6",
"1X c gray97",
"2X c #F8F8F8",
"3X c #F9F9F9",
"4X c gray98",
"5X c #FBFBFB",
"6X c gray99",
"7X c #FDFDFD",
"8X c #FEFEFE",
"9X c white",
/* pixels */
"                                                                                                                ",
"                                                                                                                ",
"                                              . . . . . . . . . . .                                             ",
"                                  . . . . . . + + > > , 9 9 4 % . . . . . .                                     ",
"                            . . . . % s N ) 1.v.^.:X4X7X7X7X4XoXn.u.R 9 + . . .                                 ",
"                        . . . , D $.n.W.'.,X7X7X7X7X7X7X7X7X7X7X7X7X#XD.w.! , . . .                             ",
"                      . . . z 9.oX7X7X7X7X7X7X7X7X7X7X7X7X7X7X7X7X7X7X7X7X:X6.t . . .                           ",
"                    . . . v ^.7X7X7X7X7X7X7X7X7X7X7X7X7X7X7X7X7X7X7X7X7X7X7X4XW.N + . .                         ",
"                  . . % $.'.7X7X7X7X7X7X7X7X7X7X7X7X7X7X7X7X7X7X7X7X7X7X7X7X7X7X#X:.. . .                       ",
"                . . > ) oX7X7X7X7X7X7X7X7X7X7X7X7X7X7X7X7X7X7X7X7X7X7X7X7X7X7X7X7X|.S % . .                     ",
"              . . . L !.7X7X7X7X7X7X7X7X7X7X7X7X7X7X7X7X7X7X7X7X7X7X7X7X7X4X7X7X7X7XG.D . .                     ",
"              . . + j.7X7X7X7X7X7X7X7X7X7X7X7X7X7X7X7X7X7X7X7X7X7X7X7X7XA.] l.:X7X7X4Xn.9 . .                   ",
"            . . . q :X7X7X7X7X7X7X7X7X7X7X7X7X7X7X7X7X7X7X7X7X7X7X7X7X4X5.+ 4 @.,X7X7X&XP + .                   ",
"            . . . ! 7X7X7X7X7X7X7X7X7X7X7X7X7X7X7X7X7X7X7X7X7X7X7X7X7X7XW.9 + v !.7X7X4X` % .                   ",
"            . . % #X7X7X7X7X7X7X7X7X7X7X7X7X7X7X7X7X7X7X7X7X7X7X7X7X7X7X4X9.+ , l.,X7X4Xf.d . .                 ",
"          . . . z 7X7X7X7X7X7X7X7X7X7X7X7X7X7X7X7X7X7X7X7X7X7X7X7X7X7X7X7X|., + w.&X7X7XK.N . .                 ",
"          . . + o.7X7X7X7X7X7X7X7X7X7X7X7X7X7X7X7X7X7X7X7X7X7X7X7X7X7X7X7Xl.% % u.:X7X7X:X! . .                 ",
"          . . % -.7X7X7X7X7X7X7X7X7X7X7X7X7X7X7X7X7X7X7X7X7X7X7X7X7X7X7XoXj . 9 A.4X7X7X,X) . .                 ",
"          . . + ] 7X7X7X7X7X7X7X7X7X7X7X7X7X7X7X7X7X7X7X7X7X7X7X7X7X7X7XG.> > ` ,X7X7X7X#XP . .                 ",
"          . . . S 7X7X7X7X7X7X7X7X7X7X7X7X7X7X7X7X7X7X7X7X7X7X7X7X7X7X7X,XA.V.|.7X7X7X7XU.S . .                 ",
"            . . 4 :X7X7X7X7X7X7X7X7X7X7X7X7X7X7X7X7X7X7X7X7X7X7X7X7X7X7X7X7X7X7X7X7X7X7X9.t . .                 ",
"            . . + K.7X7X7X7X7X7X7X7X7X7X7X7X7X7X7X7X7X7X7X7X7X7X7X7X7X7X7X7X7X7X7X7X7X#XL + .                   ",
"            . . . D 4X7X7X7X7X7X7X7X7X7X7X7X7X7X7X7X7X7X7X7X7X7X7X7X7X7X7X7X7X7X7X7X4Xl.% . .                   ",
"              . . . n.7X7X7X7X7X7X7X7X7X7X7X7X7X7X7X7X7X7X7X7X7X7X7X7X7X7X7X7X7X7X7XV.j . .                     ",
"              . . . ) ).7X7X7X7X7X7X7X7X7X7X7X7X7X7X7X7X7X7X7X7X7X7X7X7X7X7X7X7X,X!.N + .                       ",
"                . . , o.:X7X7X7X7X7X7X7X7X7X7X7X7X7X7X7X7X7X7X7X7X7X7X7X7X7X7X7Xv.D . .                         ",
"                  . . > -.).7X7X7X7X7X7X7X7X7X7X7X7X7X7X7X7X7X7X7X7X7X7X7X7X&Xl.q . . .                         ",
"                    . . . , n.|.:X:X,X4X,X4X7X7X7X7X7X7X7X7X7X7X7X7X7X7X#Xv.t . . .                             ",
"                      . . . 9 R j.^.&X#X#X#X&X:X&X:X&X:X4X7X7X,X&XoXoXw.P 9 . . . .                             ",
"                        . . . . . % z z v S R ` P ` r.l.u.] P N t > + . . . . .                                 ",
"                        . + D P q + . . . . . . . . . . . . . . . , s t % . z > .                               ",
"                        . % ] u.v.s.-.:.@.] ) P P R L D R R  .-.9.v.K.w.d s w.} 9 .                             ",
"                      . . . > t ! u.).&X&X&X#XoX#X&X|.!.&X&X'.|.!.f.-.v % N r.w.j .                             ",
"                      . + ) A.v.s.5.v % % 4 9 q t q , > t q , L S 1.f.5.v > t j % .                             ",
"                      . , 1.7X7X7X7X7X4X:X#X'.K.V.v.V.D.W.'.:X4X4X7X7X7X:X@., t , .                             ",
"                    . . t v.7X7X7X7X7X7X7X7X7X7X4X7X4X7X4X7X4X7X4X4X7X7X7Xo.V s.D %                             ",
"                    . . D U.7X7X7X7X7X7X7X7X7X7X7X7X7X7X7X7X7X7X7X7X7X7X,X+ @.U.w.d .                           ",
"                    . . L W.7X7X7X7X7X7X7X7X7X7X7X7X7X7X7X7X7X7X7X7X7X7X$.. u.V.f.R .                           ",
"                    . . D W.7X7X7X7X7X7X7X7X7X7X7X7X7X7X7X7X7X7X7X7X7X:XR > j.n.D.1.. .                         ",
"                    . . V U.7X7X7X7X7X7X7X7X7X7X7X7X7X7X7X7X7X7X7X7X7X7X) 9 v.n.v.1.. .                         ",
"                    . . D U.7X7X7X7X7X7X7X7X7X7X7X7X7X7X7X7X7X7X7X7X7X7XV.. D A.n.R .                           ",
"                    . . j V.7X7X7X7X7X7X7X7X7X7X7X7X7X7X7X7X7X7X7X7X7X7X7Xz > P 6.d .                           ",
"                      . 9 r.7X7X7X7X7X7X7X7X7X7X7X7X7X7X7X7X7X7X7X7X7X7X7X7XR . . .                             ",
"                      . + ! ,X7X7X7X7X7X7X7X7X7X7X7X7X7X7X7X7X7X7X7X7X7X7X7XG.N . .                             ",
"                        . . R v.#X&X7X7X7X7X7X7X7X7X7X7X7X7X7X7X7X7X7X7X,XU.` , . .                             ",
"                          . . 9 N S s.,X7X7X7X7X7X7X7X7X7X7X7X7X7X7X'.:.} % . . .                               ",
"                            . . . + % o.W.7X7X7X7X7X7X7X7X7X7X7X7XW.) + + . .                                   ",
"                                  . . > o.4X7X7X7X7X7X7X7X7X7X7X7Xw., . .                                       ",
"                                    . + v ).7X7X7X7X7X7X7X7X7X4X4X$.+ .                                         ",
"                                    . . % w.&X7X7X7X7X7X7X7X4X4X:XL . .                                         ",
"                                    . . . L V.&X4X7X7X7X7X,X&X'.:.> . .                                         ",
"                                      . . + j @.j.G.'.oXW.s.o.D + . . .                                         ",
"                                        . . . . + > q t 4 % . . . . .                                           ",
"                                              . . . . . . . . .                                                 ",
"                                                                                                                ",
"                                                                                                                "
};
