/* XPM */
static char *_d52424c52e14cb6cceff618168daf9bGXgBwI25gFOoHP3Y[] = {
/* columns rows colors chars-per-pixel */
"56 56 195 2 ",
"   c None",
".  c black",
"X  c #010101",
"o  c #020202",
"O  c gray1",
"+  c #040404",
"@  c gray2",
"#  c #060606",
"$  c #070707",
"%  c gray3",
"&  c #090909",
"*  c gray4",
"=  c #0B0B0B",
"-  c #0C0C0C",
";  c gray5",
":  c #0E0E0E",
">  c gray6",
",  c #111111",
"<  c gray7",
"1  c #131313",
"2  c gray8",
"3  c #161616",
"4  c gray9",
"5  c #191919",
"6  c gray10",
"7  c #1B1B1B",
"8  c gray11",
"9  c #1D1D1D",
"0  c #1E1E1E",
"q  c gray12",
"w  c #202020",
"e  c gray13",
"r  c #222222",
"t  c #232323",
"y  c gray14",
"u  c #252525",
"i  c gray15",
"p  c #2A2A2A",
"a  c #2C2C2C",
"s  c #2D2D2D",
"d  c gray18",
"f  c #2F2F2F",
"g  c gray19",
"h  c #313131",
"j  c #323232",
"k  c #343434",
"l  c #353535",
"z  c gray21",
"x  c #373737",
"c  c gray22",
"v  c gray23",
"b  c #3E3E3E",
"n  c #3F3F3F",
"m  c gray25",
"M  c gray26",
"N  c #444444",
"B  c gray27",
"V  c gray29",
"C  c #4C4C4C",
"Z  c gray31",
"A  c #515151",
"S  c gray32",
"D  c #535353",
"F  c gray33",
"G  c #555555",
"H  c gray34",
"J  c gray35",
"K  c #5A5A5A",
"L  c #5B5B5B",
"P  c gray36",
"I  c #5D5D5D",
"U  c gray37",
"Y  c #5F5F5F",
"T  c #606060",
"R  c gray38",
"E  c gray39",
"W  c #646464",
"Q  c #656565",
"!  c gray40",
"~  c #676767",
"^  c DimGray",
"/  c gray42",
"(  c #6D6D6D",
")  c gray43",
"_  c #6F6F6F",
"`  c gray44",
"'  c #717171",
"]  c #727272",
"[  c gray45",
"{  c gray46",
"}  c gray47",
"|  c #797979",
" . c #7B7B7B",
".. c #7C7C7C",
"X. c gray49",
"o. c #808080",
"O. c #818181",
"+. c #838383",
"@. c #848484",
"#. c #868686",
"$. c gray53",
"%. c #888888",
"&. c gray54",
"*. c gray55",
"=. c #8D8D8D",
"-. c #909090",
";. c gray57",
":. c #929292",
">. c #939393",
",. c gray58",
"<. c #989898",
"1. c gray61",
"2. c #9D9D9D",
"3. c gray62",
"4. c #A0A0A0",
"5. c gray63",
"6. c #A2A2A2",
"7. c gray64",
"8. c #A5A5A5",
"9. c #A7A7A7",
"0. c #A9A9A9",
"q. c #AAAAAA",
"w. c gray67",
"e. c #ACACAC",
"r. c gray68",
"t. c #AEAEAE",
"y. c #AFAFAF",
"u. c gray69",
"i. c #B1B1B1",
"p. c #B2B2B2",
"a. c gray70",
"s. c gray71",
"d. c #B6B6B6",
"f. c gray72",
"g. c #B9B9B9",
"h. c gray73",
"j. c #BBBBBB",
"k. c #BCBCBC",
"l. c gray74",
"z. c gray",
"x. c gray75",
"c. c #C0C0C0",
"v. c #C1C1C1",
"b. c #C3C3C3",
"n. c gray77",
"m. c #C5C5C5",
"M. c gray78",
"N. c gray79",
"B. c #CACACA",
"V. c #CBCBCB",
"C. c gray80",
"Z. c gray82",
"A. c #D2D2D2",
"S. c LightGray",
"D. c #D5D5D5",
"F. c gray84",
"G. c #D8D8D8",
"H. c gray85",
"J. c #DADADA",
"K. c gray86",
"L. c gainsboro",
"P. c #DDDDDD",
"I. c gray87",
"U. c #DFDFDF",
"Y. c gray88",
"T. c #E1E1E1",
"R. c #E2E2E2",
"E. c gray89",
"W. c #E4E4E4",
"Q. c gray90",
"!. c #E6E6E6",
"~. c #E7E7E7",
"^. c gray91",
"/. c #E9E9E9",
"(. c #EAEAEA",
"). c gray92",
"_. c #ECECEC",
"`. c gray93",
"'. c #EEEEEE",
"]. c #EFEFEF",
"[. c gray94",
"{. c gray95",
"}. c #F3F3F3",
"|. c #F4F4F4",
" X c gray96",
".X c #F6F6F6",
"XX c gray97",
"oX c #F8F8F8",
"OX c #F9F9F9",
"+X c gray98",
"@X c #FBFBFB",
"#X c gray99",
"$X c #FDFDFD",
"%X c #FEFEFE",
"&X c white",
/* pixels */
"                                                  . . .                                                         ",
"                                      . . . . . . . . . . . . . . .                                             ",
"                              . . . . . . 1 W ^ W W ^ ) { ' x . . . . . .                                       ",
"                            . . . = g X.d.D.$X$X$X$X$X$X$X$XXXz.z.#.g i @ . .                                   ",
"                        . . = g O.L.$X$X$X$X$X$X$X$X$X$X$X$X$X$X$X$X$XXXb.U i @ .                               ",
"                      . . = ' L.oX$X$X$X$X$X$X$X$X$X$X$X$X$X$X$X$X$X$X$X$X`.b.m . .                             ",
"                  . . . ) E.$X$X$X$X$X$X$X$X$X$X$X$X$X$X$X$X$X$X$X$X$X$X$X$X$XXX:.3 .                           ",
"                  . @ N /.$X$X$X$X$X$X$X$X$X$X$X$X$X$X$X$X$X$X$X$X$X$X$X$X$X$X$X$XO.= .                         ",
"                . . i n.$X$X$X$X$X$X$X$X$X$X$X$X$X$X$X$X$X$X$X$X$X$X$X$X$X$X$X$X$XG.A . .                       ",
"                . . 2.$X$X$X$X$X$X$X$X$X$X$X$X$X$X$X$X$X$X$X$X$X$X$X$X$X$X$X$X$X$X}.E.0 . .                     ",
"              . . C !.$X$X$X$X$X$X$X$X$X$X$X$X$X$X$X$X$X$X$X$X$X$X$X$X$X$X$X$X$X$XoX/.d.= .                     ",
"              . . 8.$X$X$X$X$X$X$X$X$X$X$X$X$X$X$X$X$X$X$X$X$X$X$X$X$X$X$X$X$X$X$X$X/./.) @ .                   ",
"              . ; L.$X$X$X$X$X$X$X$X$X$X$X$X$X$X$X$X$X$X$X$X$X$X$X$X$X$X$X$X$X$X$X$X}.!.r.3 .                   ",
"            . . f oX$X$X$X$X$X$X$X$X$X$X$X$X$X$X$X$X$X$X$X$X$X$X$X$X$X$X$X$X$X$X$X$X}./.A.x .                   ",
"            . . 0 XX$X$X$X$X$X$X$X$X$X$X$X$X$X$X$X$X$X$X$X$X$X$X$X$X$X$X$X$X$X$X$X$XXX!.E.m .                   ",
"            . . g oX$X$X$X$X$X$X$X$X$X$X$X$X$X$X$X$X$X$X$X$X$X$X$X$X$X$X$X$X$X$X$X$X$X/.G.n .                   ",
"            . . i oX$X$X$X$X$X$X$X$X$X$X$X$X$X$X$X$X$X$X$X$X$X$X$X$X$X$X$X$X$X$X$X$X$X/.G.m .                   ",
"            . . 0 }.$X$X$X$X$X$X$X$X$X$X$X$X$X$X$X$X$X$X$X$X$X$X$X$X$X$X$X$X$X$X$X$X$X/.G.n .                   ",
"              . . d.$X$X$X$X$X$X$X$X$X$X$X$X$X$X$X$X$X$X$X$X$X$X$X$X$X$X$X$X$X$X$X$X}./.A.x .                   ",
"              . . C oX$X$X$X$X$X$X$X$X$X$X$X$X$X$X$X$X$X$X$X$X$X$X$X$X$X$X$X$X$X$X$X`.!.d.6 .                   ",
"                . . n.$X$X$X$X$X$X$X$X$X$X$X$X$X$X$X$X$X$X$X$X$X$X$X$X$X$X$X$X$X$XoX!.`.) . .                   ",
"                . . ) }.$X$X$X$X$X$X$X$X$X$X$X$X$X$X$X$X$X$X$X$X$X$X$X$X$X$X$X$X$X`./.`.V . .                   ",
"                . . 6 u.$X$X$X$X$X$X$X$X$X$X$X$X$X$X$X$X$X$X$X$X$X$X$X$X$X$X$X$X}././.r.= .                     ",
"                  . . V XX$X$X$X$X$X$X$X$X$X$X$X$X$X$X$X$X$X$X$X$X$X$X$X$X$X$XXX!./.!.) . .                     ",
"                    . = F B.$X$X$X$X$X$X$X$X$X$X$X$X$X$X$X$X$X$X$X$X$X$X$X$XXX/./.B.^ ; .                       ",
"                    . . . f g.$X$X$X$X$X$X$X$X$X$X$X$X$X$X$X$X$X$X$X$X$XoX`./.`.B.m @ . .                       ",
"                      . . . 1 *.}.$X$X$X$X$X$X$X$X$X$X$X$X$X$X$X$X$XXX/././.E.8.0 . . .                         ",
"                        . . . . x :.G.!.}.oX$X$X$XoXoXoXoXoX}./././.L.A.u.W 1 . . .                             ",
"                          . . . . @ f A O.0./.`.`./.!.E.!.!.L.z.d.u.F x 6 . . . . .                             ",
"                          . . . 0 6 = . . . . = t f 6 = @ @ @ . . . . . . . . . . .                             ",
"                        . . . = d.}.A.#.x f 1 @ @ . @ @ @ . @ ; 6 i N U | d.z.L . .                             ",
"                        . @ t 3 f | r.A.G.D.d.2.7.2.<.<.,.2.0.d.n.B.L.E.B.7.O.g = . .                           ",
"                      . . t 0.2.F g ; x ' 8.E.!./.XX!.XX$X$X$XoXG.*.U F g @ . i W . .                           ",
"                      . . n /.$XoXb.O.U x 6 @ @ @ @ = 1 3 ; 1 1 3 t f m %.z././.E.i . .                         ",
"                      . . #.$X$X$X$X$X$XL.n.0.2.7.u.0.0.r.u.u.z.b.B.D.!.$X$XoX}.!.) . .                         ",
"                    . . = L.$X$X$X$X$X$X$X$X$X$X$X$X$X$X$X$X$X$X$X$X$X$X$X$X$XoX/.7.@ .                         ",
"                    . . n $X$X$X$X$X$X$X$X$X$X$X$X$X$X$X$X$X$X$X$X$X$X$X$X$X$X$X/.B.g . .                       ",
"                    . = D.$X$X$X$X$X$X$X$X$X$X$X$X$X$X$X$X$X$X$X$X$X$X$X$X$X$X$X`./.W . .                       ",
"                  . . 3 XX$X$X$X$X$X$X$X$X$X$X$X$X$X$X$X$X$X$X$X$X$X$X$X$X$X$X$X$X/.^ . .                       ",
"                  . . n $X$X$X$X$X$X$X$X$X$X$X$X$X$X$X$X$X$X$X$X$X$X$X$X$X$X$X$X$X/.8.. .                       ",
"                  . . R $X$X$X$X$X$X$X$X$X$X$X$X$X$X$X$X$X$X$X$X$X$X$X$X$X$X$X$X$X/.D.1 .                       ",
"                  . . X.$X$X$X$X$X$X$X$X$X$X$X$X$X$X$X$X$X$X$X$X$X$X$X$X$X$X$X$X$X/.D.; .                       ",
"                  . = u.$X$X$X$X$X$X$X$X$X$X$X$X$X$X$X$X$X$X$X$X$X$X$X$X$X$X$X$X$X}.E.; . .                     ",
"                  . = r.$X$X$X$X$X$X$X$X$X$X$X$X$X$X$X$X$X$X$X$X$X$X$X$X$X$X$X$X$XoX!.c . .                     ",
"                  . = 0.$X$X$X$X$X$X$X$X$X$X$X$X$X$X$X$X$X$X$X$X$X$X$X$X$X$X$X$X$XXX!.A . .                     ",
"                  . = u.$X$X$X$X$X$X$X$X$X$X$X$X$X$X$X$X$X$X$X$X$X$X$X$X$X$X$X$X$XXX/.L . .                     ",
"                  . ; u.$X$X$X$X$X$X$X$X$X$X$X}.E.L.E.E./.XX$X$X$X$X$X$X$X$X$X$X$XoX/.:.@ .                     ",
"                  . = 0.$X$X$X$X$X$X$X$X$X$XO.f = . . . = f U z./.$X$X$X$X$X$X$X$XoX!.U . .                     ",
"                  . = r.$X$X$X$X$X$X$X$X$XE.= . . . . . . . . t #.`.$X$X$X$X$X$X$X`./.' . .                     ",
"                  . . X.$X$X$X$X$X$X$X$X$Xb.. . .   . . . . . . m L.oX$X$X$X$X$X$X!./.U . .                     ",
"                  . . = n.XX$X$X$X$X$X$X}.:.. .               . = | !.`.oX$X$XoX/./.{ . . .                     ",
"                    . . t L z.$X$X$X$XoX%.i . .               . . ; :.E./.}.`././.C.c . .                       ",
"                      . . . . 0 t t p t . . .                   . . @ 3 f g m f 3 @ . .                         ",
"                          . . . . . . . . .                       . . . . . . . . . .                           ",
"                                                                                                                ",
"                                                                                                                "
};
