/* XPM */
static char *_1a53cda0a1e4dd683fdb20dca5ad9e3Wkhe7yNzAoyxtajN[] = {
/* columns rows colors chars-per-pixel */
"56 56 241 2 ",
"   c #49BAF1",
".  c #46B8F1",
"X  c #46B7F0",
"o  c #46B8F0",
"O  c #11AAEF",
"+  c #43B8F6",
"@  c #018DF2",
"#  c #018CF1",
"$  c #018AEE",
"%  c #0079D1",
"&  c #0077CE",
"*  c #017ED9",
"=  c #018BEF",
"-  c #0183DF",
";  c #007DD3",
":  c #007CD2",
">  c #0485D7",
",  c #078BD8",
"<  c #027ED3",
"1  c #009FED",
"2  c #0189EC",
"3  c #017AD3",
"4  c #017FDA",
"5  c #2490DA",
"6  c #439FDE",
"7  c #0981D4",
"8  c #0189EB",
"9  c #017BD4",
"0  c #017FDB",
"q  c #018AED",
"w  c #0184E0",
"e  c #3F9BDD",
"r  c #6BB0E3",
"t  c #0F83D5",
"y  c #0188EA",
"u  c #017CD6",
"i  c #017FDC",
"p  c #0184E1",
"a  c #007ED3",
"s  c #0982D5",
"d  c #1688D6",
"f  c #218CD8",
"g  c #69B0E4",
"h  c #99C7EC",
"j  c #3496DB",
"k  c #1D8AD7",
"l  c #1085D5",
"z  c #0180D4",
"x  c #0187E9",
"c  c #007CD6",
"v  c #0184E2",
"b  c #007CD3",
"n  c #0183D5",
"m  c #1F92DB",
"M  c #4BA2DF",
"N  c #6DB1E4",
"B  c #B0D3F1",
"V  c #D0E5F7",
"C  c #87BDE9",
"Z  c #61AAE3",
"A  c #389ADC",
"S  c #0189D6",
"D  c #0187E8",
"F  c #0185E3",
"G  c #158AD7",
"H  c #2F93DA",
"J  c #429CDD",
"K  c #88BFE9",
"L  c #B1D3F1",
"P  c #59A6E1",
"I  c #3A98DD",
"U  c #248ED8",
"Y  c #0184D5",
"T  c #45B9F6",
"R  c #1994F1",
"E  c #017CD5",
"W  c #017EDA",
"Q  c #0189ED",
"!  c #0285E4",
"~  c #469DDD",
"^  c #75B4E6",
"/  c #1084D5",
"(  c #48BAF6",
")  c #309DF0",
"_  c #007BD6",
"`  c #0186E4",
"'  c #2E94DA",
"]  c #51A4E0",
"[  c #0B82D4",
"{  c #339EF0",
"}  c #2F9DF0",
"|  c #1895F1",
" . c #007BD5",
".. c #007DD8",
"X. c #018BEE",
"o. c #018CF0",
"O. c #0C89D7",
"+. c #1692D9",
"@. c #037FD3",
"#. c #44B8F6",
"$. c #1694F1",
"%. c #2E9DF0",
"&. c #1794F1",
"*. c #007BD4",
"=. c #007CD7",
"-. c #018BF0",
";. c #007FD3",
":. c #0081D4",
">. c #007DD2",
",. c #038DF1",
"<. c #2E9CF0",
"1. c #1594F1",
"2. c #0285E2",
"3. c #048DF1",
"4. c #1493F1",
"5. c #0079D2",
"6. c #0284E2",
"7. c #1A95F1",
"8. c #1292F1",
"9. c #0078D1",
"0. c #0183E0",
"q. c #1C96F1",
"w. c #319DF0",
"e. c #1192F1",
"r. c #0178CF",
"t. c #017DD7",
"y. c #017CD2",
"u. c #028CF1",
"i. c #1E96F1",
"p. c #329EF0",
"a. c #1092F1",
"s. c #028BEF",
"d. c #017DD8",
"f. c #0182DE",
"g. c #0181D5",
"h. c #0389D8",
"j. c #0281D4",
"k. c #068EF1",
"l. c #1D96F1",
"z. c #319EF0",
"x. c #1688D7",
"c. c #3A9BDD",
"v. c #1A8AD7",
"b. c #47BAF6",
"n. c #2499F1",
"m. c #088FF1",
"M. c #1D97F1",
"N. c #1293F1",
"B. c #268FD8",
"V. c #61ABE2",
"C. c #2990D9",
"Z. c #2098F1",
"A. c #0A90F1",
"S. c #1393F1",
"D. c #0380D4",
"F. c #0E84D5",
"G. c #1788D6",
"H. c #48A0DE",
"J. c #8AC0E9",
"K. c #4CA1DF",
"L. c #1887D6",
"P. c #0F84D5",
"I. c #0EA3EE",
"U. c #0B90F1",
"Y. c #1593F1",
"T. c #0D8CD9",
"R. c #3D9CDD",
"E. c #62ACE2",
"W. c #98C7EC",
"Q. c #CAE1F6",
"!. c #9BC8ED",
"~. c #66ACE3",
"^. c #419DDD",
"/. c #3AADF0",
"(. c #1B96F1",
"). c #0C90F1",
"_. c #0A87D7",
"`. c #2D93DA",
"'. c #469EDD",
"]. c #79B7E6",
"[. c #B0D4F0",
"{. c #7CB8E7",
"}. c #489FDF",
"|. c #3094DA",
" X c #28A9EF",
".X c #1B95F1",
"XX c #1795F1",
"oX c #2D91D9",
"OX c #6FB1E5",
"+X c #2F93DB",
"@X c #1894F1",
"#X c #1E8BD7",
"$X c #4DA2DF",
"%X c #228CD8",
"&X c #1C96F0",
"*X c #0984D5",
"=X c #1791D9",
"-X c #0B85D6",
";X c #2097F1",
":X c #098FF1",
">X c #2298F1",
",X c #2599F1",
"<X c #078EF1",
"1X c #299AF1",
"2X c #058EF1",
"3X c #058DF1",
"4X c #2D9CF0",
"5X c #028DF1",
"6X c #299BF1",
"7X c #00A0EE",
"8X c #01A3F4",
"9X c #01A0EF",
"0X c #009EEC",
"qX c #01A2F1",
"wX c #4EBBF6",
"eX c #53A4F0",
"rX c #4FBCF6",
"tX c #6DACEF",
"yX c #51A4F0",
"uX c #4DA3F0",
"iX c #098EF1",
"pX c #49A2F0",
"aX c #0C8FF1",
"sX c #46A1F0",
"dX c #0E90F1",
"fX c #0F90F1",
"gX c #1090F1",
"hX c #48A2F0",
"jX c #4BA2F0",
"kX c #4EA3F0",
"lX c #0D90F1",
"zX c #50A4F0",
"xX c #0A8FF1",
"cX c #16AEF5",
"vX c #1EAAF3",
"bX c #04A3F3",
"nX c #01A1F4",
"mX c #0AA5F3",
"MX c #02A2F3",
"NX c #0EA6F3",
"BX c #00A7F4",
/* pixels */
"  . . . . . . . . . . . . . . . X X X . . . . X X X X X X X X X X X X X X X X X X o X X X X X X X X X X X X X O ",
"+ @ # # # # # # # # # # # # # $ % & * = # # # - ; : : : : : : : : : : : : : : : > , < : : : : : : : : : : : : 1 ",
"+ # # # # # # # # # # # # # # # 2 3 & 4 $ # # # - ; : : : : : : : : : : : : : : 5 6 7 : : : : : : : : : : : : 1 ",
"+ # # # # # # # # # # # # # # # # 8 9 & 0 q # # # w ; : : : : : : : : : : : : : e r t : : : : : : : : : : : : 1 ",
"+ # # # # # # # # # # # # # # # # # y u & i q # # # p ; : : : : : : : : a s d f g h j k l z : : : : : : : : : 1 ",
"+ # # # # # # # # # # # # # # # # # # x c & 0 2 # # # v b : : : : : : : n m M N B V C Z A S : : : : : : : : : 1 ",
"+ # # # # # # # # # # # # # # # # # # # D u & 0 2 # # # F : : : : : : : z G H J K L P I U Y : : : : : : : : : 1 ",
"T R # # # # # # # # # # # # # # # # # # # x E & W Q # # # ! : : : : : : : : : : ~ ^ / : : : : : : : : : : : : 1 ",
"( ) R # # # # # # # # # # # # # # # # # # # x _ & * q # # # ` : : : : : : : : : ' ] [ : : : : : : : : : : : : 1 ",
"( { } | # # # # # # # # # # # # # # # # # # # x  .& ..X.# # o.F : : : : : : : : O.+.@.: : : : : : : : : : : : 1 ",
"#.$.{ %.&.# # # # # # # # # # # # # # # # # # # y *.& =.= # # -.F : : : : : : : ;.:.>.: : : : : : : : : : : : 1 ",
"+ ,.&.{ <.1.# # # # # # # # # # # # # # # # # # # 8 3 & c # # # = 2.: : : : : : : : : : : : : : : : : : : : : 1 ",
"+ # 3.| { } 4.# # # # # # # # # # # # # # # # # # # 2 5.& u # # # = 6.: : : : : : : : : : : : : : : : : : : : 1 ",
"+ # # ,.7.{ ) 8.# # # # # # # # # # # # # # # # # # # q 9.& u # # # -.0.: : : : : : : : : : : : : : : : : : : 1 ",
"+ # # # ,.q.{ w.e.# # # # # # # # # # # # # # # # # # # = r.& t.# # # o.- : : : : : : : : : : : : : : y.: : : 1 ",
"+ # # # # u.i.{ p.a.# # # # # # # # # # # # # # # # # # # s.r.& d.o.# # # f.: : : : : : : : : : : : g.h.j.: : 1 ",
"+ k.# # # # # l.z.{ e.u.# # # # # # # # # # # # # # # # # # $ 5.& * = # # # - b : : : : : : : : : : x.c.v.: : 1 ",
"b.n.m.# # # # # M.w.{ N.u.# # # # # # # # # # # # # # # # # # 2 3 & 4 $ # # # - ; : : : : : : : : : B.V.C.: : 1 ",
"+ m.Z.A.# # # # # q.) { S.u.# # # # # # # # # # # # # # # # # # 8 9 & 0 q # # # w ; : : : : >.D.F.G.H.J.K.L.P.I.",
"+ # A.M.U.# # # # # q.) { Y.# # # # # # # # # # # # # # # # # # # y u & i q # # # p ; : : : a T.R.E.W.Q.!.~.^./.",
"+ # # U.(.).# # # # # 7.w.{ $.# # # # # # # # # # # # # # # # # # # x c & 0 2 # # # v b : : a _.`.'.].[.{.}.|. X",
"+ # # # )..X).# # # # # | z.p.XX# # # # # # # # # # # # # # # # # # # D u & 0 2 # # # F : : : : : : oXOX+X: : 1 ",
"+ # # # # ).(.).# # # # # $.{ w.@X# # # # # # # # # # # # # # # # # # # x E & W Q # # # ! : : : : : #X$X%X: : 1 ",
"+ # # # # # ).&XU.# # # # # Y.{ ) R # # # # # # # # # # # # # # # # # # # x _ & * q # # # ` : : : : *X=X-X: : 1 ",
"+ # # # # # # U.M.U.# # # # u.1.{ } | # # # # # # # # # # # # # # # # # # # x  .& ..X.# # o.F : : : a :.a : : 1 ",
"+ # # # # # # # U.;X:X# # # # ,.$.{ %.&.# # # # # # # # # # # # # # # # # # # y *.& =.= # # -.F : : : : : : : 1 ",
"+ # # # # # # # # :X>Xm.# # # # ,.&.{ <.1.# # # # # # # # # # # # # # # # # # # 8 3 & c # # # = 2.: : : : : : 1 ",
"+ # # # # # # # # # m.,X<X# # # # 3.| { } 4.# # # # # # # # # # # # # # # # # # # 2 5.& u # # # = 6.: : : : : 1 ",
"+ # # # # # # # # # # k.1X2X# # # # ,.7.{ ) 8.# # # # # # # # # # # # # # # # # # # q 9.& u # # # -.0.: : : : 1 ",
"+ # # # # # # # # # # # 3X4X5X# # # # ,.q.{ w.e.# # # # # # # # # # # # # # # # # # # = r.& t.# # # o.- : : : 1 ",
"+ # # # # # # # # # # # # ,.<.,.# # # # u.i.{ p.a.# # # # # # # # # # # # # # # # # # # s.r.& d.o.# # # f.: : 1 ",
"+ # # # # # # # # # # # # # ,.6Xk.# # # # # l.z.{ e.u.# # # # # # # # # # # # # # # # # # $ 5.& * = # # # - b 1 ",
"+ # # # # # # # # # # # # # # k.n.m.# # # # # M.w.{ N.u.# # # # # # # # # # # # # # # # # # 2 3 & 4 $ # # # - 7X",
"+ # # # # # # # # # # # # # # # m.Z.A.# # # # # q.) { S.u.# # # # # # # # # # # # # # # # # # 8 9 & 0 q # # # 8X",
"+ # # # # # # # # # # # # # # # # A.M.U.# # # # # q.) { Y.# # # # # # # # # # # # # # # # # # # y u & i q # # 8X",
"+ # # # # # # # # # # # # # # # # # U.(.).# # # # # 7.w.{ $.# # # # # # # # # # # # # # # # # # # x c & 0 2 # 8X",
"+ # # # # # # # # # # # # # # # # # # )..X).# # # # # | z.p.XX# # # # # # # # # # # # # # # # # # # D u & 0 2 8X",
"+ # # # # # # # # # # # # # # # # # # # ).(.).# # # # # $.{ w.@X# # # # # # # # # # # # # # # # # # # x E & W 9X",
"+ # # # # # # # # # # # # # # # # # # # # ).&XU.# # # # # Y.{ ) R # # # # # # # # # # # # # # # # # # # x _ & 0X",
"+ # # # # # # # # # # # # # # # # # # # # # U.M.U.# # # # u.1.{ } | # # # # # # # # # # # # # # # # # # # x  .0X",
"+ # # # # # # # # # # # # # # # # # # # # # # U.;X:X# # # # ,.$.{ %.&.# # # # # # # # # # # # # # # # # # # y qX",
"+ # # # # # # # # # # # # # # # # # # # # # # # :X>Xm.# # # # ,.&.{ <.1.# # # # # # # # # # # # # # # # # # # 8X",
"+ # # # # # # # # # # # # # # # # # # # # # # # # m.,X<X# # # # 3.| { } 4.# # # # # # # # # # # # # # # # # # 8X",
"+ # # # # # # # # # # # # # # # # # # # # # # # # # k.1X2X# # # # ,.7.{ ) 8.# # # # # # # # # # # # # # # # # 8X",
"wXeX# # # # # # # # # # # # # # # # # # # # # # # # # 3X4X5X# # # # ,.q.{ w.e.# # # # # # # # # # # # # # # # 8X",
"rXtXyX3.# # # # # # # # # # # # # # # # # # # # # # # # ,.<.,.# # # # u.i.{ p.a.# # # # # # # # # # # # # # # 8X",
"rXtXtXuXiX# # # # # # # # # # # # # # # # # # # # # # # # ,.6Xk.# # # # # l.z.{ e.u.# # # # # # # # # # # # # 8X",
"rXtXtXtXpXaX# # # # # # # # # # # # # # # # # # # # # # # # k.n.m.# # # # # M.w.{ N.u.# # # # # # # # # # # # 8X",
"rXtXtXtXtXsXdX# # # # # # # # # # # # # # # # # # # # # # # # m.Z.A.# # # # # q.) { S.u.# # # # # # # # # # # 8X",
"rXtXtXtXtXtXsXfX# # # # # # # # # # # # # # # # # # # # # # # # A.M.U.# # # # # q.) { Y.# # # # # # # # # # # 8X",
"rXtXtXtXtXtXtXsXgX# # # # # # # # # # # # # # # # # # # # # # # # U.(.).# # # # # 7.w.{ $.# # # # # # # # # # 8X",
"rXtXtXtXtXtXtXtXhXgX# # # # # # # # # # # # # # # # # # # # # # # # )..X).# # # # # | z.p.XX# # # # # # # # # 8X",
"rXtXtXtXtXtXtXtXtXjXfX# # # # # # # # # # # # # # # # # # # # # # # # ).(.).# # # # # $.{ w.@X# # # # # # # # 8X",
"rXtXtXtXtXtXtXtXtXtXkXlX# # # # # # # # # # # # # # # # # # # # # # # # ).&XU.# # # # # Y.{ ) R # # # # # # # 8X",
"rXtXtXtXtXtXtXtXtXtXtXzXxX# # # # # # # # # # # # # # # # # # # # # # # # U.M.U.# # # # u.1.{ } | # # # # # # 8X",
"cXvXvXvXvXvXvXvXvXvXvXvXbXnXnXnXnXnXnXnXnXnXnXnXnXnXnXnXnXnXnXnXnXnXnXnXnXnXmXbXnXnXnXnXnXMXNXNXmXnXnXnXnXnXnXBX"
};
