/* XPM */
static char *e9af8219246649cfebc925c49f383bf7fOIpT4y8wfYWOVyj[] = {
/* columns rows colors chars-per-pixel */
"56 56 78 1 ",
"  c #55160F",
". c #55190F",
"X c #5D1D0F",
"o c #561710",
"O c #581710",
"+ c #561911",
"@ c #5D1C12",
"# c #5F1E18",
"$ c #611D0F",
"% c #621D13",
"& c #642115",
"* c #692316",
"= c #64231A",
"- c #692419",
"; c #672818",
": c #6B291E",
"> c #73271F",
", c #76291F",
"< c #782A1D",
"1 c #682622",
"2 c #6D2920",
"3 c #732E23",
"4 c #7D2E21",
"5 c #733125",
"6 c #783227",
"7 c #763529",
"8 c #7B3429",
"9 c #7A392D",
"0 c #833122",
"q c #883624",
"w c #8E3825",
"e c #82372A",
"r c #853B2D",
"t c #893D2E",
"y c #923626",
"u c #903825",
"i c #943C2A",
"p c #9D3E2A",
"a c #843C31",
"s c #8B3E31",
"d c #903E30",
"f c #A03F2A",
"g c #87402F",
"h c #9E412D",
"j c #874032",
"k c #8E4435",
"l c #8C4639",
"z c #924436",
"x c #9F4635",
"c c #9F4835",
"v c #934539",
"b c #9D463C",
"n c #954A3D",
"m c #994C3E",
"M c #A3422D",
"N c #AB442E",
"B c #B3462F",
"V c #B2482E",
"C c #A34431",
"Z c #AA4430",
"A c #A54A37",
"S c #AB4935",
"D c #A04638",
"F c #A34B3B",
"G c #AD4D38",
"H c #B34631",
"J c #B44B35",
"K c #B84D37",
"L c #B54E39",
"P c #B84F3A",
"I c #B45036",
"U c #B5513B",
"Y c #974F41",
"T c #9A4D42",
"R c #B35542",
"E c #B85542",
"W c #B65844",
"Q c #B85942",
/* pixels */
"BBBBN@UJHZHZHJHHHM=JVBBBBBVVVBu0HHHHHJHJHHH0rBBBBBBBBBBB",
"BBBHN@UZHHJHZHSHZf=JBVBBBBBBBBw4HHHJHHHJHJH0rVBBBBBBBBBB",
"LLLLS#WULLLLILLLUC=UIIKIVIIIIIu4RLIIPPLLLPJ0rILLKKKKLLLL",
"kkkkk+kzzkkkkkkkkj@kgkkkhkkkkk9;dkzkdvkkkkk3,kzkkzkkzkkk",
"@%%%@@@$XX@+@+@@@@@@X@@X X$XXXXX%@@@@+#@@@%%XXXX@@.%@@%X",
"MMMMMMMMMMM<sMMMMMMMMMMM*zMNMMMMMMMMf+ACCfMMMMMNMp@AMMMM",
"BBBBBBVVBBH<dBBBSVVVVVVB*DBBBBVVBHHBN@GHHBBVVVBBVN#LBBBH",
"BBBBBBBBBBB<sBHHBBBBBBBJ*xBBBBVVBBBBB+RHHHHHHHBHVN%IVBBB",
"BBBBBBBBBBH0sHHHBBHBBBBN*xBBBBBBBBBBBXRHHHHHHHHHHN%LBBBB",
"BBBBBBBBBBB<dHHHHJZHBJHJ*xBBBBBBHHBBB+GHHHHHHHHHHN%IHHBB",
"IIKKIIIKIIK<dPPPLLLLLLLL*AKKKIKKIIKKJ+RLPKKKKKLKLS#ELIIK",
"mmmmmmTmmmm,eTTTTTTTTTTT;aTTTTTmmTnmm@nYTTTnTTmmnY+TTTTT",
"$XXX@ @@%%%@%@%%%@o@%%X$X$%@%XX+@@@%X$$%@%XX@%@%%%X@%XX$",
"MMMNp%AMMMMMfffffi=CMMMMMMMMMMq3MMfMMMMffMM<eMMMMMMMMMMM",
"VBHHZ#UBBBBBHBBBBf=JHBBVVHBBBBu6BBBBBBBBBBH0rBBBBBBBVVBB",
"VVBHN@UVBBBBHHBBBf=JHBBBBVBBBHw6BBBBBBBBBBH0rBBBBBBBBBBB",
"BBBVN&UVBBBHBBBHBf=JJBBBBBVVVBw6ZBBBBBBBBBH0rHBBBBHHBBBB",
"BBBVNXUVBBBHBBBHHf=JVVBBBBVVHHw6HHBBBBBJBBH0rHBBBBBHBBBB",
"PPIUG@UULIUPLLLPLC=UIUGUUUUUULi7PPKLIUUIUILetIULKIPIPPPP",
"mmnnn+nmbTbnnnTTYk#nnnnnvnlnnnr1Tnnnnnmnnnn55nnnnTnnnnnn",
"$&&$&&$&%*&@%=%%%%*%=%**+&&*&&&&%*&&%O=%*&&&&&*&%&+&*&%%",
"NMMNMMMNMMM,tZZZZZMNNZNM*zMMhMMMNfNMC$TfMCNMCCMNCM#AMMNM",
"VVVVBBBBBBJ,dVVHHHHHHHBH*bBBBVVVBBBBHORZHBVBVBVBHN@LBVBB",
"VVVVBBBBBBV<sBBBHHHBHBBH*xBBBBBVBBBBB@LHBBBBHBBBHZ%IVBBB",
"BBBBBBBBBBB<iSBBBBHHBBHH*xHBBBBBBBBBf%RHBBVHBBHVBM%LHBBB",
"BBVVBBBBBJB<tVBHBBHHBBHH-xHHBBBBBBBBB@GHBVHHBBBHBN#IBBBH",
"PPPUPPPUUUU<zIUUIUUUUUUU-FIULPPUPREPJ+WEUUUPUUUUUG@WUIII",
"zvnvvvvvvvv:7vnvvvvvvvvv=avvlvvvvvvvlOvvvvvvvvvzvz+vvvvv",
"%%*%* =*&*%*=%%%%%O=*%%*&&*%&%%+%%%%%*&%*%&@@&&%*%%%%%%%",
"xxphh@chhMMhMMMhCi=ChpMhhhhphhq5xpCxxhhhMhh4ehhhhhChChCC",
"BBBHZ+UJHHVNHJHHJf=JBBBBBBBBHHy6HBBBBBBBBBH0rBBBHBBBBBHB",
"BBBBZ#UBVHVBBBBHHp&JBBBBBBBBHHw6ZBBBBBHBBBH0rHBBBBBHBBBB",
"BBBBZ@EHHHBBBBBBBf*JHHHHHHHHHHy6HHHBHHHHHBH0rBBBBBBBBBVB",
"HHHHZ@UHVVBVBBBBVh&JHHHHHHHHHHy6HHHHHHHHHHH0rHBBBBBBBBVV",
"JJHHZXPVJHJJJJHJJh;KHHJHJHHKHLy5HJHJJJJHHHJ0aHHSJSHJSJSJ",
"kkkvk.zzzzzzkzkkkt@glllkkzkzkv8;dlllkkkzvkv33kkkkklkzkzk",
"***********@&***&*****&;+=-=%-*&1%-*- -**&**----**O****%",
"hpphphhpfpp>rfpppphphppp-dppffhpffppp+Dppppppppppi@Cfffp",
"BBBBNVVBHBH4tVBBBBBBVVBV-DHHBBBBHHHBN+LZBVHBHHHBHZ%KHHHH",
"BBBBVBBBBBH<iVBBBBBBVVBB-bHBBBBBHHHBBXRHHBHHHHHHHZ@KBBBB",
"BBBBBBBBBBB,iVBBBBBBBBBB*AHBBBBBBBBBZ+RHHHHHHHHHHf%EfKBB",
"BBBBBBBBBBB,sJBBBJBBBBBS*DBVBBBVBVBBB+LHHHHHHHHHHf%EBBHH",
"JJKKLLKKKLK4sLJLJLUJJLLL-DKKJLLLJUJUJ+RLKLLLLLPJLS%EKKJL",
"gjgtatjgsas;3ssajajaajaj&8jagggtggggj+assakaalaaseOddsrs",
"%%%%$ @XXX%@#%%%%@.&XX@@@@&#@%XX%%%%%%%%%%%O+%%%*%%*%*%*",
"CCCfh#AhchMMMMffMi=MMhMMhMhhhMq3hMMMMffCfff0rfMMffffffff",
"BBHHZ@UBVVBBHBHBBp=JJBBBBBVBHHy6NBBBBBBBHHH0tBBBBBBBBBBB",
"BHHHZ@UJHVHHHHHHHh=JBBBBBBBBHHq6JBBBBBBBBHB0rBBBHBBBBBKf",
"BBHHf#EHHHHHHHfKKf#JHHHHHHHHBHy7BBBBHBBBfKB0yffBBBfKBBBB",
"HHHHH@EHHHHHHHKfHf1HHHHZHHZHHHy5NBBHBBBBKfByyKKfBBKfBBBB",
"HLJJS@EHJLJJLJLJKf1RLJPPLLKJLJy7LLJJLLLJJLJ0sKJJKKKLPfKK",
"aaaaaOraaaaaaeaayeOaaaaaaasaar5=araaa9aaaea41raadsaadasy",
"@%%%@%%%X$$O@%%%%$$%$%%%O%$$$$@@%*%*$o%%*%$%$*$*%%%%%%%=",
"fCffffffMMf,sfMMMMNMffMf&zMMMMMMfffffOTfffffffffff%fffff",
"HHHHHHHHJBH,dHHBBBBBBBHH*bHBVBBBKfBBfORfBBBBBBBBJf%PHHfK",
"HHHHHKHHVHB3iBBHHHBHBHHB*DHBBBBBHHBKf$EKHHKBBBBHKf%KHKfK"
};
